<svg width="992" height="548" viewBox="0 0 992 548" fill="none" xmlns="http://www.w3.org/2000/svg">
<path d="M155.357 263.769V280.845L125.822 250.264V296.284H114.445V221.335L155.357 263.769ZM158.941 221.335H170.317V296.284L158.941 284.516V221.335V221.335Z" fill="white"/>
<path d="M244.448 285.341C241.003 288.74 236.951 291.462 232.503 293.367C227.894 295.311 222.943 296.313 217.942 296.313C212.94 296.313 207.989 295.311 203.38 293.367C194.418 289.554 187.282 282.413 183.471 273.445C181.47 268.844 180.443 263.877 180.457 258.859C180.43 253.832 181.437 248.852 183.414 244.231C187.212 235.254 194.352 228.108 203.323 224.309C210.189 221.331 217.795 220.508 225.138 221.949C232.481 223.39 239.214 227.026 244.448 232.377L235.361 241.47C233.107 239.225 230.455 237.42 227.54 236.148C224.524 234.844 221.269 234.185 217.984 234.213C214.685 234.189 211.417 234.847 208.385 236.148C205.468 237.398 202.815 239.189 200.564 241.427C198.324 243.668 196.538 246.321 195.303 249.24C193.999 252.278 193.335 255.553 193.354 258.859C193.334 262.147 193.997 265.404 195.303 268.422C197.816 274.295 202.505 278.967 208.385 281.457C211.417 282.757 214.685 283.416 217.984 283.392C221.269 283.42 224.524 282.761 227.54 281.457C230.442 280.205 233.092 278.435 235.361 276.234L244.448 285.341ZM223.829 258.859C223.825 260.432 223.199 261.939 222.088 263.051C220.976 264.163 219.47 264.789 217.899 264.793C217.106 264.805 216.32 264.656 215.586 264.356C214.853 264.055 214.189 263.608 213.633 263.043C213.058 262.51 212.601 261.862 212.292 261.142C211.984 260.421 211.83 259.643 211.841 258.859C211.824 258.062 211.975 257.27 212.283 256.534C212.592 255.799 213.052 255.136 213.633 254.59C214.191 254.029 214.857 253.587 215.59 253.289C216.322 252.99 217.108 252.843 217.899 252.854C218.68 252.84 219.455 252.987 220.177 253.285C220.899 253.584 221.551 254.028 222.094 254.59C222.656 255.148 223.099 255.814 223.397 256.547C223.695 257.281 223.842 258.067 223.829 258.859V258.859Z" fill="white"/>
<path d="M292.186 221.335L329.586 296.284H254.687L292.186 221.335ZM292.186 246.949L273.287 284.886H311.099L292.186 246.949Z" fill="white"/>
<path d="M380.964 263.769V280.845L351.357 250.264V296.284H339.981V221.335L380.964 263.769ZM384.533 221.335H395.91V296.284L384.533 284.516V221.335V221.335Z" fill="white"/>
<path d="M435.556 221.335C439.361 221.341 443.116 222.197 446.549 223.839C450.263 225.623 453.515 228.243 456.048 231.495C459.037 235.391 461.305 239.791 462.746 244.487C464.554 250.482 465.413 256.724 465.291 262.986C465.493 268.823 464.611 274.647 462.689 280.162C461.286 284.045 458.952 287.524 455.891 290.293C453.164 292.648 449.903 294.299 446.392 295.103C442.838 295.919 439.203 296.329 435.556 296.327H406.021V221.335H435.556ZM447.928 280.432C448.996 279.47 449.862 278.304 450.473 277.003C451.169 275.567 451.703 274.059 452.066 272.506C452.438 270.89 452.695 269.249 452.834 267.596C452.962 265.932 453.033 264.309 453.033 262.744C453.218 257.698 452.51 252.659 450.943 247.859C449.919 244.912 448.452 242.138 446.591 239.634C445.333 237.879 443.677 236.448 441.759 235.459C439.84 234.469 437.715 233.95 435.556 233.942H418.293V283.548H435.556C441.415 283.586 445.539 282.547 447.928 280.432Z" fill="white"/>
<path d="M531.616 233.999H488.073V261.819H517.097L514.636 274.498H488.073V283.605H531.616V296.284H475.516V221.335H531.616V233.999Z" fill="white"/>
<path d="M595.692 257.322C598.248 258.79 600.405 260.862 601.977 263.356C603.438 265.719 604.202 268.447 604.181 271.225C604.125 274.082 603.497 276.898 602.333 279.507C601.007 282.577 599.072 285.347 596.645 287.647C593.827 290.301 590.531 292.397 586.932 293.822C578.303 296.977 568.863 297.122 560.141 294.235C556.729 293.012 553.551 291.217 550.741 288.927C548.31 286.936 546.295 284.484 544.811 281.713C543.5 279.285 542.588 276.661 542.109 273.943L554.467 271.595C554.623 272.68 554.915 273.742 555.334 274.754C555.968 276.314 556.939 277.714 558.179 278.852C559.832 280.382 561.763 281.58 563.867 282.382C566.814 283.441 569.938 283.924 573.067 283.805C576.294 283.921 579.51 283.384 582.524 282.225C584.638 281.372 586.569 280.121 588.212 278.539C589.441 277.343 590.384 275.883 590.971 274.27C591.358 273.272 591.597 272.222 591.682 271.154C591.682 269.66 590.174 268.237 587.188 266.885C584.202 265.533 579.481 264.893 573.081 264.893C568.937 264.956 564.797 264.598 560.724 263.826C557.773 263.233 554.907 262.277 552.192 260.979C550.152 260.014 548.288 258.716 546.674 257.137C545.434 255.919 544.401 254.506 543.617 252.954C542.987 251.73 542.537 250.421 542.28 249.069C542.1 248.106 541.995 247.131 541.967 246.152C542.03 243.296 542.658 240.481 543.816 237.87C545.133 234.811 547.07 232.059 549.504 229.787C552.331 227.162 555.619 225.083 559.202 223.654C567.867 220.512 577.338 220.392 586.079 223.313C589.495 224.551 592.674 226.365 595.479 228.677C597.892 230.647 599.905 233.063 601.408 235.792C602.727 238.203 603.645 240.813 604.125 243.519L591.753 245.981C591.595 244.892 591.304 243.826 590.885 242.808C590.251 241.265 589.279 239.884 588.041 238.766C586.371 237.274 584.444 236.097 582.353 235.294C579.412 234.204 576.287 233.696 573.153 233.8C569.964 233.696 566.787 234.233 563.81 235.38C561.696 236.228 559.765 237.474 558.122 239.051C556.898 240.209 555.929 241.609 555.278 243.163C554.867 244.098 554.608 245.093 554.51 246.109C554.581 246.883 554.93 247.606 555.491 248.144C556.374 249.055 557.454 249.751 558.648 250.179C560.509 250.901 562.446 251.412 564.421 251.701C567.295 252.147 570.202 252.352 573.11 252.313C582.77 252.446 590.298 254.116 595.692 257.322Z" fill="white"/>
<path d="M678.355 285.341C674.902 288.737 670.846 291.459 666.396 293.367C661.787 295.311 656.836 296.313 651.834 296.313C646.832 296.313 641.881 295.311 637.272 293.367C628.312 289.551 621.177 282.411 617.364 273.445C615.373 268.847 614.36 263.884 614.392 258.873C614.363 253.844 615.375 248.864 617.364 244.245C621.164 235.27 628.303 228.125 637.272 224.323C641.888 222.336 646.866 221.328 651.891 221.363C656.818 221.325 661.702 222.283 666.249 224.181C670.797 226.079 674.915 228.876 678.355 232.406L669.254 241.499C667.005 239.254 664.358 237.449 661.447 236.176C658.43 234.875 655.176 234.216 651.891 234.241C648.588 234.217 645.315 234.876 642.278 236.176C636.393 238.688 631.705 243.379 629.195 249.268C627.896 252.307 627.237 255.582 627.261 258.888C627.236 262.175 627.895 265.432 629.195 268.45C630.45 271.349 632.24 273.985 634.471 276.22C636.714 278.457 639.364 280.244 642.278 281.485C645.315 282.786 648.588 283.444 651.891 283.42C655.176 283.446 658.43 282.787 661.447 281.485C664.345 280.233 666.99 278.463 669.254 276.263L678.355 285.341ZM657.707 258.859C657.703 260.429 657.079 261.934 655.971 263.046C654.863 264.158 653.361 264.786 651.791 264.793C650.999 264.804 650.213 264.654 649.48 264.353C648.747 264.053 648.082 263.607 647.525 263.043C646.952 262.509 646.498 261.861 646.191 261.14C645.885 260.42 645.734 259.642 645.748 258.859C645.729 258.063 645.878 257.271 646.184 256.536C646.49 255.801 646.947 255.138 647.525 254.59C648.085 254.031 648.75 253.589 649.483 253.291C650.216 252.993 651.001 252.844 651.791 252.854C652.57 252.842 653.343 252.989 654.062 253.288C654.781 253.587 655.431 254.03 655.972 254.59C656.537 255.146 656.982 255.811 657.28 256.546C657.578 257.28 657.724 258.067 657.707 258.859V258.859Z" fill="white"/>
<path d="M744.878 233.999H701.349V261.819H730.373L727.941 274.498H701.349V283.605H744.878V296.284H688.778V221.335H744.878V233.999Z" fill="white"/>
<path d="M795.972 263.769V280.845L766.436 250.264V296.284H755.06V221.335L795.972 263.769ZM799.541 221.335H810.918V296.284L799.541 284.516V221.335V221.335Z" fill="white"/>
<path d="M885.076 285.341C881.628 288.744 877.571 291.466 873.117 293.367C868.508 295.311 863.557 296.313 858.555 296.313C853.554 296.313 848.603 295.311 843.994 293.367C835.034 289.551 827.899 282.411 824.085 273.445C822.098 268.846 821.091 263.884 821.127 258.873C821.094 253.845 822.101 248.865 824.085 244.245C827.885 235.27 835.024 228.125 843.994 224.323C848.615 222.388 853.574 221.391 858.584 221.391C863.593 221.391 868.553 222.388 873.174 224.323C877.637 226.228 881.681 228.994 885.076 232.462L875.99 241.555C873.733 239.313 871.081 237.509 868.168 236.233C865.137 234.956 861.88 234.299 858.591 234.299C855.302 234.299 852.045 234.956 849.014 236.233C843.121 238.734 838.43 243.428 835.931 249.325C834.62 252.361 833.956 255.637 833.983 258.945C833.955 262.234 834.619 265.492 835.931 268.507C837.181 271.405 838.966 274.041 841.192 276.277C843.438 278.517 846.093 280.305 849.014 281.542C852.045 282.819 855.302 283.477 858.591 283.477C861.88 283.477 865.137 282.819 868.168 281.542C871.068 280.286 873.718 278.517 875.99 276.32L885.076 285.341ZM864.457 258.859C864.446 260.43 863.817 261.932 862.708 263.043C861.598 264.153 860.096 264.782 858.527 264.793C857.735 264.804 856.949 264.654 856.216 264.353C855.483 264.053 854.818 263.607 854.261 263.043C853.693 262.505 853.242 261.856 852.937 261.136C852.631 260.417 852.476 259.641 852.483 258.859C852.471 258.064 852.622 257.274 852.928 256.539C853.234 255.805 853.687 255.141 854.261 254.59C854.82 254.031 855.486 253.589 856.219 253.291C856.951 252.993 857.736 252.844 858.527 252.854C859.306 252.842 860.078 252.989 860.797 253.288C861.517 253.587 862.167 254.03 862.708 254.59C863.274 255.145 863.721 255.81 864.022 256.544C864.323 257.278 864.471 258.066 864.457 258.859Z" fill="white"/>
<path d="M951.6 233.999H908.071V261.819H937.095L934.635 274.498H908.071V283.605H951.6V296.284H895.5V221.335H951.6V233.999Z" fill="white"/>
<path d="M890.552 323.122C890.438 324.27 889.168 326.267 886.741 329.113C885.24 331.015 883.517 332.731 881.607 334.222C879.271 336.156 877.179 338.369 875.379 340.81C874.938 341.408 874.227 342.233 873.246 343.485C872.857 343.856 872.526 344.283 872.264 344.752C871.238 345.786 870.336 346.937 869.577 348.181H869.776L869.861 348.381C869.941 348.239 870.048 348.113 870.174 348.011C870.217 348.001 870.263 348.007 870.302 348.028C870.341 348.049 870.371 348.083 870.387 348.124L870.572 347.897H870.913C870.962 347.788 871.033 347.69 871.121 347.609C871.209 347.529 871.313 347.467 871.425 347.427L871.568 347.555L871.809 347.256V347.328C872.855 346.413 873.807 345.398 874.653 344.297C876.625 341.944 877.649 340.72 877.725 340.625V340.483C879.782 338.035 882.963 334.454 887.267 329.739C887.551 329.882 887.722 330.451 887.765 331.404C886.217 332.627 884.852 334.064 883.712 335.673C881.237 338.79 879.815 340.511 879.446 340.824H879.303L877.796 342.959C877.435 343.455 877.046 343.93 876.63 344.382C876.79 344.413 876.954 344.413 877.113 344.382C877.783 343.67 878.698 343.237 879.673 343.172C879.719 343.188 879.769 343.188 879.815 343.172C879.852 343.081 879.852 342.979 879.815 342.888C880.187 342.636 880.634 342.52 881.081 342.56C881.963 342.162 883.143 341.536 884.608 340.711C885.404 340.562 886.168 340.278 886.869 339.871C887.224 339.871 887.58 340.099 887.907 340.668C887.945 341.592 888.296 342.475 888.902 343.172V343.258C889.052 343.619 889.134 344.005 889.144 344.396C889.105 344.649 888.999 344.888 888.836 345.085C888.674 345.283 888.461 345.434 888.22 345.52C887.823 345.695 887.442 345.905 887.082 346.146L886.741 346.488C886.57 346.602 886.456 346.616 886.399 346.488C882.448 347.998 878.583 349.727 874.824 351.668C871.137 353.428 867.706 355.683 864.628 358.37C864.628 358.74 864.244 358.954 863.391 359.039C863.346 359.043 863.301 359.034 863.261 359.014C863.221 358.994 863.187 358.963 863.163 358.925C862.467 359.167 861.741 358.74 861.044 357.616C860.454 356.909 860.127 356.019 860.12 355.097C861.035 352.946 862.195 350.907 863.576 349.021C864.878 346.866 866.332 344.807 867.927 342.859V342.731C867.927 342.632 867.927 342.518 868.155 342.361H868.368V342.29C868.586 341.815 868.884 341.382 869.25 341.009C869.583 340.553 869.964 340.133 870.387 339.757C870.348 339.725 870.323 339.679 870.316 339.629C870.615 339.458 870.714 339.345 870.615 339.259C871.198 338.605 872.037 337.694 873.231 336.527C873.394 336.224 873.629 335.965 873.914 335.773H873.843L874.341 335.175C874.515 334.944 874.721 334.738 874.952 334.563L874.881 334.435C875.123 334.179 875.507 333.823 876.004 333.354C877.263 331.655 878.646 330.052 880.142 328.558C881.745 326.962 883.21 325.235 884.522 323.393L884.778 323.236C884.687 323.201 884.585 323.201 884.494 323.236C883.477 323.435 882.482 323.73 881.522 324.118C880.564 324.407 879.657 324.844 878.834 325.413C877.918 325.786 877.083 326.332 876.374 327.021C875.642 327.714 874.852 328.342 874.013 328.9C873.261 329.83 872.428 330.692 871.525 331.475V331.618C871.433 331.788 871.307 331.938 871.155 332.059C870.942 332.272 870.899 332.414 870.985 332.5L870.615 332.799V332.941L870.188 333.382C869.961 333.382 869.861 333.61 869.89 333.966L869.634 334.065C869.055 334.646 868.609 335.345 868.325 336.114C868.08 336.221 867.861 336.382 867.685 336.584H867.344C866.619 336.698 865.851 336.285 865.055 335.36C864.715 335.036 864.443 334.648 864.255 334.218C864.067 333.788 863.967 333.325 863.96 332.856C864.226 332.337 864.427 331.787 864.557 331.219C864.557 329.198 865.894 326.623 868.61 323.464C868.866 323.393 869.022 323.264 869.05 323.08C869.434 322.809 869.989 322.396 870.714 321.813L870.856 321.884L871.667 321.045L871.895 321.23C872.03 321.011 872.193 320.81 872.378 320.632C872.4 320.644 872.424 320.651 872.449 320.651C872.474 320.651 872.499 320.644 872.52 320.632C872.64 320.611 872.747 320.545 872.819 320.447C872.918 320.319 873.018 320.29 873.118 320.376C873.099 320.346 873.088 320.311 873.088 320.276C873.088 320.241 873.099 320.206 873.118 320.177C873.118 320.177 873.26 320.091 873.53 320.063C873.8 320.034 873.757 319.935 873.829 319.693C874.045 319.583 874.254 319.46 874.454 319.323C874.653 319.168 874.888 319.065 875.137 319.024C875.188 318.909 875.269 318.81 875.372 318.737C875.474 318.665 875.594 318.621 875.72 318.611C875.861 318.596 875.997 318.552 876.119 318.481C876.242 318.41 876.348 318.313 876.431 318.199C876.431 318.298 876.431 318.327 876.587 318.327C876.694 318.243 876.785 318.142 876.857 318.028C877 317.829 877.113 317.729 877.213 317.715C877.255 317.726 877.292 317.75 877.32 317.783C877.348 317.816 877.365 317.857 877.369 317.9L877.867 317.373L878.152 317.487V317.274L878.749 317.074H878.55C878.936 316.962 879.291 316.763 879.588 316.491C879.61 316.5 879.635 316.505 879.659 316.505C879.683 316.505 879.707 316.5 879.73 316.491C879.63 316.491 879.73 316.42 880.043 316.249C880.104 316.257 880.16 316.287 880.199 316.334C880.222 316.369 880.254 316.396 880.292 316.411C880.331 316.426 880.373 316.429 880.413 316.42L880.583 316.064V315.993C880.648 316.042 880.72 316.081 880.797 316.107C880.92 316.098 881.039 316.054 881.138 315.979C881.213 315.918 881.3 315.874 881.394 315.851V315.637C881.874 315.582 882.349 315.491 882.816 315.367V315.168C882.937 315.137 883.049 315.079 883.143 314.997C883.232 314.908 883.346 314.848 883.47 314.826C883.47 314.826 883.555 314.826 883.612 314.826L883.299 315.125L883.655 315.296C883.555 315.296 883.527 315.196 883.57 315.096L883.825 314.94C883.911 314.84 883.825 314.755 883.74 314.67C883.839 314.829 883.902 315.009 883.925 315.196H883.854L884.01 315.324H883.797C883.591 315.56 883.357 315.77 883.1 315.95C882.83 315.95 882.688 315.95 882.688 315.95C882.699 315.925 882.717 315.904 882.739 315.889C882.762 315.874 882.789 315.865 882.816 315.865L882.702 316.149C882.877 316.2 883.031 316.305 883.143 316.448C883.143 316.363 883.043 316.32 883.001 316.334C882.958 316.349 882.873 316.334 882.745 316.562C882.617 316.79 882.531 316.719 882.475 316.562L882.105 317.018C882.059 317.002 882.009 317.002 881.963 317.018C881.863 317.018 881.82 317.131 881.82 317.316C881.82 317.501 881.692 317.544 881.451 317.487C881.955 317.499 882.459 317.471 882.958 317.402L883.242 317.516C883.242 317.188 884.01 316.961 885.518 316.804C887.025 316.648 887.736 316.804 888.092 317.245L888.376 317.359C888.617 318.068 888.983 318.729 889.457 319.309C889.521 319.633 889.657 319.94 889.855 320.205C890.129 320.644 890.331 321.125 890.452 321.628C890.561 322.118 890.594 322.622 890.552 323.122V323.122ZM879.46 318.426C879.359 318.618 879.329 318.84 879.374 319.052L879.46 318.426Z" fill="white"/>
<path d="M931.521 324.972L929.672 339.914C929.672 340.07 929.246 341.066 928.463 342.93C928.279 342.93 928.151 343.101 928.094 343.372H927.88C927.88 343.372 927.795 343.599 927.752 344.069C927.752 344.296 927.568 344.51 927.198 344.709C926.842 344.894 926.7 345.15 926.786 345.463C926.508 345.87 926.144 346.211 925.719 346.46V346.602C925.628 346.681 925.528 346.747 925.42 346.801C925.278 346.886 925.25 347.014 925.42 347.185C925.174 347.449 924.897 347.683 924.596 347.883C924.334 348.128 924.105 348.405 923.913 348.708C923.71 348.989 923.412 349.186 923.074 349.263C922.989 349.363 922.894 349.454 922.79 349.533C922.647 349.661 922.605 349.775 922.647 349.86H922.519C919.106 352.578 914.2 354.727 907.759 356.307L907.545 356.193L907.076 356.307C906.075 356.491 905.048 356.491 904.047 356.307L901.203 355.752C901.052 355.594 900.851 355.494 900.634 355.467C900.4 355.475 900.165 355.451 899.937 355.396C898.519 354.88 897.239 354.042 896.197 352.948C893.353 349.979 891.841 347.375 891.661 345.136C891.661 344.553 891.661 342.219 891.661 338.135L892.159 336.911C892.111 336.855 892.081 336.785 892.073 336.712C892.108 336.605 892.166 336.508 892.244 336.427C892.329 336.313 892.329 336.228 892.244 336.157C892.523 335.497 892.714 334.803 892.813 334.094C893.178 333.691 893.432 333.201 893.552 332.671L894.292 331.774C894.268 331.733 894.256 331.686 894.256 331.639C894.256 331.591 894.268 331.545 894.292 331.504C894.448 331.262 894.647 330.92 894.875 330.479H895.145V330.266L894.889 330.436L895.188 329.995V330.066C895.503 329.882 895.741 329.588 895.856 329.241L896.013 329.426V329.156L896.098 328.587C896.254 328.715 896.368 328.772 896.453 328.757C896.539 328.743 896.553 328.658 896.596 328.444C896.638 328.231 896.738 328.117 896.866 328.103L897.164 328.217C897.279 327.844 897.427 327.482 897.605 327.135H897.747L898.117 326.765L898.046 326.694C898.046 326.694 898.117 326.765 898.387 326.694C898.658 326.623 898.828 326.452 899.155 326.025C899.282 325.843 899.444 325.688 899.633 325.571C899.821 325.454 900.031 325.376 900.25 325.342C900.331 324.979 900.551 324.663 900.862 324.46H901.331C901.485 324.27 901.601 324.053 901.672 323.819L902.127 323.563V323.421C902.158 323.439 902.192 323.448 902.227 323.448C902.262 323.448 902.296 323.439 902.326 323.421C902.469 323.421 902.682 323.25 902.966 322.909C903.193 322.7 903.36 322.435 903.45 322.14C903.834 321.955 904.2 321.736 904.545 321.486L905.057 321.087L905.213 321.215C905.498 320.959 906.465 320.177 908.057 318.882C908.295 318.826 908.509 318.697 908.669 318.512C908.856 318.309 909.09 318.158 909.351 318.07C910.128 317.544 910.852 316.943 911.513 316.277V316.192H911.797C911.902 316.132 912.011 316.079 912.124 316.036H912.338C913.43 315.615 914.482 315.096 915.48 314.485C915.626 314.569 915.796 314.604 915.964 314.584C916.286 314.534 916.584 314.385 916.817 314.157V314.157L917.215 313.972C918.267 313.972 919.377 313.972 920.543 313.972C921.539 313.955 922.51 314.287 923.287 314.911H923.415C923.615 314.899 923.814 314.949 923.984 315.054C923.984 315.239 924.226 315.31 924.524 315.281C924.823 315.253 924.965 315.353 924.994 315.58L925.122 315.495C926.316 316.477 928.065 318.056 930.383 320.205L930.255 320.29C930.836 320.905 931.256 321.655 931.477 322.472C931.698 323.289 931.713 324.148 931.521 324.972ZM927.255 339.33V339.188C926.788 340.508 925.948 341.665 924.837 342.518C924.116 343.7 923.145 344.71 921.993 345.478C920.841 346.36 919.704 347.256 918.609 348.139L918.523 348.011C918.04 348.238 917.329 348.637 916.376 349.177H916.447C916.447 349.177 915.025 349.661 912.48 350.487C909.934 351.312 908.527 351.725 908.384 351.739C906.039 351.931 903.679 351.626 901.459 350.842C899.3 350.186 897.324 349.036 895.686 347.484L895.813 348.153C895.974 348.657 896.204 349.136 896.496 349.576C896.872 350.722 897.544 351.748 898.444 352.55C899.866 354.101 902.412 354.699 906.166 354.343C909.01 354.058 912.878 352.635 917.77 350.074C920.556 348.514 922.979 346.38 924.88 343.813C925.396 343.138 925.835 342.408 926.188 341.635L925.733 342.02H925.662C926.322 341.201 926.867 340.296 927.283 339.33H927.255ZM926.757 330.721C926.841 329.941 926.841 329.153 926.757 328.373C926.569 327.059 926.191 325.779 925.634 324.574C925.066 323.367 924.664 322.089 924.439 320.774C924.285 320.609 924.094 320.482 923.881 320.406C923.668 320.329 923.44 320.304 923.216 320.333C922.746 320.406 922.269 320.43 921.794 320.404C920.866 320.666 919.913 320.829 918.95 320.888V321.03C916.855 321.699 914.803 322.498 912.807 323.421C911.811 324.118 910.361 325.2 908.441 326.665C903.933 331.034 901.445 335.203 901.004 339.131L900.933 339.003V339.487L901.047 339.202C900.864 340.23 900.967 341.289 901.345 342.262V342.404L901.26 342.276C901.758 343.988 902.747 345.517 904.104 346.673C905.128 346.858 906.18 347.043 907.261 347.271C908.305 347.475 909.37 347.551 910.432 347.498C912.062 347.172 913.628 346.581 915.068 345.748C916.668 345.018 918.192 344.131 919.618 343.101C921.627 341.669 923.305 339.823 924.542 337.688C925.778 335.552 926.543 333.177 926.786 330.721H926.757ZM929.118 324.517C929.06 324.019 928.817 323.561 928.435 323.236L927.155 322.098C927.437 323.627 927.95 325.105 928.677 326.48V326.48C928.677 326.808 928.677 327.035 928.876 327.149L928.776 326.893H928.919C929.178 326.129 929.256 325.316 929.146 324.517H929.118Z" fill="white"/>
<path d="M961.427 316.221C961.313 317.369 960.043 319.37 957.616 322.226C956.111 324.124 954.388 325.839 952.482 327.334C950.142 329.259 948.049 331.467 946.254 333.909C945.813 334.506 945.102 335.332 944.12 336.598C943.729 336.961 943.398 337.384 943.139 337.85C942.113 338.885 941.211 340.036 940.452 341.28H940.665L940.75 341.479C940.821 341.335 940.923 341.208 941.049 341.109C941.092 341.104 941.135 341.112 941.173 341.133C941.211 341.153 941.242 341.184 941.262 341.223L941.447 340.995H941.788C941.837 340.886 941.908 340.788 941.996 340.708C942.084 340.627 942.188 340.565 942.3 340.526L942.442 340.654L942.684 340.355V340.426C943.738 339.521 944.692 338.505 945.528 337.395L948.614 333.724V333.596C950.681 331.148 953.861 327.562 958.156 322.838C958.44 322.994 958.611 323.549 958.654 324.502C957.109 325.723 955.748 327.161 954.615 328.771C952.127 331.902 950.704 333.61 950.349 333.923H950.207L948.699 336.057C948.342 336.556 947.952 337.032 947.533 337.48C947.693 337.514 947.857 337.514 948.017 337.48C948.682 336.759 949.598 336.321 950.576 336.257C950.623 336.272 950.672 336.272 950.719 336.257C950.754 336.17 950.754 336.073 950.719 335.986C951.089 335.732 951.536 335.611 951.984 335.645C952.866 335.246 954.046 334.634 955.511 333.795C956.307 333.646 957.072 333.362 957.772 332.955C958.142 332.955 958.483 333.183 958.81 333.752C958.846 334.68 959.197 335.569 959.805 336.271V336.342C959.955 336.704 960.041 337.089 960.061 337.48C960.023 337.734 959.917 337.972 959.754 338.17C959.591 338.368 959.378 338.518 959.137 338.604C958.735 338.777 958.349 338.987 957.985 339.231C957.879 339.352 957.765 339.466 957.644 339.572C957.473 339.686 957.36 339.7 957.303 339.572C953.351 341.082 949.487 342.811 945.727 344.752C942.043 346.518 938.614 348.772 935.531 351.454C935.531 351.824 935.147 352.038 934.294 352.123C934.249 352.131 934.203 352.124 934.162 352.104C934.121 352.083 934.087 352.05 934.067 352.009C933.37 352.251 932.645 351.824 931.948 350.7C931.357 349.993 931.03 349.103 931.023 348.181C931.938 346.03 933.098 343.991 934.479 342.105C935.781 339.95 937.235 337.891 938.83 335.943V335.815C938.83 335.716 938.902 335.602 939.058 335.445H939.271V335.374C939.489 334.9 939.787 334.466 940.153 334.094C940.495 333.643 940.875 333.224 941.291 332.841C941.291 332.841 941.219 332.841 941.219 332.713C941.518 332.557 941.618 332.429 941.518 332.343C942.101 331.689 942.94 330.778 944.135 329.611C944.298 329.308 944.532 329.049 944.817 328.857L945.315 328.259C945.494 328.027 945.705 327.821 945.941 327.647L945.855 327.519C946.111 327.263 946.481 326.907 946.979 326.452C948.235 324.747 949.619 323.139 951.117 321.642C952.719 320.047 954.184 318.319 955.497 316.477L955.753 316.32C955.661 316.284 955.56 316.284 955.468 316.32C954.419 316.546 953.395 316.875 952.411 317.302C951.453 317.591 950.546 318.028 949.723 318.597C948.812 318.979 947.979 319.524 947.263 320.205C946.531 320.897 945.742 321.526 944.903 322.083C944.151 323.019 943.318 323.885 942.414 324.673V324.801C942.324 324.977 942.198 325.132 942.044 325.257C941.831 325.456 941.788 325.598 941.874 325.684L941.504 325.997L941.589 326.125L941.148 326.58C940.921 326.58 940.821 326.794 940.85 327.149L940.594 327.249C940.015 327.83 939.569 328.529 939.285 329.298C939.037 329.406 938.817 329.572 938.646 329.782H938.304C937.579 329.896 936.882 329.483 936.015 328.558C935.675 328.234 935.403 327.846 935.215 327.416C935.027 326.986 934.927 326.523 934.92 326.054C935.186 325.535 935.387 324.985 935.517 324.417C935.517 322.396 936.854 319.821 939.57 316.662C939.826 316.591 939.982 316.477 940.011 316.277C940.395 316.021 940.949 315.594 941.674 315.025H941.817L942.67 314.157L942.897 314.342C943.033 314.124 943.196 313.923 943.381 313.745C943.427 313.76 943.477 313.76 943.523 313.745C943.643 313.715 943.749 313.645 943.822 313.545C943.921 313.417 944.021 313.389 944.12 313.474C944.101 313.444 944.091 313.41 944.091 313.375C944.091 313.339 944.101 313.305 944.12 313.275C944.12 313.275 944.263 313.19 944.533 313.161C944.803 313.133 944.76 313.033 944.846 312.791C945.057 312.681 945.261 312.557 945.457 312.421C945.656 312.266 945.891 312.163 946.14 312.122C946.191 312.007 946.272 311.908 946.374 311.836C946.477 311.763 946.597 311.719 946.723 311.71C946.864 311.695 947 311.65 947.122 311.579C947.245 311.508 947.351 311.412 947.434 311.297C947.434 311.397 947.434 311.439 947.59 311.425C947.747 311.411 947.718 311.325 947.875 311.126C948.031 310.927 948.131 310.827 948.216 310.813C948.259 310.827 948.296 310.854 948.324 310.889C948.352 310.924 948.369 310.967 948.372 311.012L948.87 310.472L949.154 310.585V310.372L949.752 310.173H949.553C949.942 310.067 950.298 309.867 950.591 309.589C950.636 309.607 950.687 309.607 950.733 309.589C950.633 309.589 950.733 309.518 951.046 309.347C951.076 309.35 951.106 309.358 951.133 309.373C951.16 309.388 951.184 309.408 951.202 309.433C951.225 309.467 951.257 309.494 951.295 309.509C951.333 309.525 951.375 309.528 951.416 309.518L951.586 309.162V309.091L951.814 309.219C951.931 309.195 952.043 309.147 952.141 309.077C952.216 309.016 952.303 308.972 952.397 308.949V308.736C952.877 308.68 953.352 308.59 953.819 308.465V308.266C953.94 308.235 954.052 308.177 954.146 308.095C954.238 308.011 954.351 307.952 954.473 307.924C954.519 307.909 954.569 307.909 954.615 307.924L954.302 308.223L954.658 308.394C954.638 308.39 954.62 308.381 954.605 308.369C954.59 308.356 954.578 308.341 954.569 308.323C954.561 308.305 954.557 308.285 954.558 308.266C954.558 308.246 954.563 308.226 954.572 308.209L954.828 308.038C954.914 307.939 954.828 307.853 954.743 307.768C954.841 307.934 954.903 308.118 954.928 308.309V308.309L955.084 308.437H954.871C954.664 308.668 954.43 308.873 954.174 309.049C953.904 309.049 953.762 309.049 953.762 309.049C953.762 309.049 953.762 308.963 953.89 308.963L953.776 309.248C953.948 309.304 954.101 309.408 954.217 309.547C954.217 309.461 954.117 309.433 954.075 309.433C954.032 309.433 953.947 309.504 953.819 309.661C953.691 309.817 953.605 309.817 953.549 309.661L953.179 310.102C953.133 310.086 953.083 310.086 953.037 310.102C952.937 310.102 952.894 310.215 952.894 310.4C952.894 310.585 952.766 310.642 952.525 310.571C953.029 310.592 953.534 310.563 954.032 310.486L954.316 310.6C954.316 310.272 955.084 310.045 956.592 309.902C958.099 309.76 958.81 309.902 959.166 310.329L959.45 310.443C959.691 311.153 960.057 311.813 960.531 312.393C960.595 312.718 960.731 313.024 960.929 313.289C961.208 313.751 961.41 314.256 961.526 314.783C961.565 315.265 961.531 315.749 961.427 316.221V316.221ZM950.335 311.525C950.234 311.717 950.204 311.939 950.249 312.151L950.335 311.525Z" fill="white"/>
<path d="M991.986 324.033L990.82 328.302C989.738 329.889 988.555 331.405 987.279 332.841C986.088 334.322 984.684 335.616 983.113 336.683C982.613 337.092 982.138 337.529 981.691 337.993C980.745 338.353 979.907 338.951 979.259 339.729C978.283 340.162 977.365 340.716 976.529 341.379C976.358 341.379 976.073 341.579 975.675 341.764C975.391 341.931 975.077 342.042 974.751 342.091C973.889 342.781 972.931 343.342 971.907 343.756C970.763 344.341 969.591 344.868 968.394 345.335C967.221 345.678 966.067 346.087 964.939 346.559C964.758 346.709 964.591 346.876 964.441 347.057C964.185 347.342 964 347.484 963.858 347.498C963.788 347.511 963.715 347.511 963.645 347.498C962.706 347.726 962.223 347.413 962.052 346.559C961.929 345.943 961.753 345.338 961.526 344.752C961.289 344.151 961.201 343.502 961.27 342.859L961.37 342.432C961.416 342.367 961.475 342.312 961.543 342.27C961.612 342.228 961.688 342.201 961.768 342.191C961.861 342.198 961.953 342.222 962.038 342.262L962.322 342.347C962.417 342.308 962.501 342.246 962.565 342.167C962.63 342.087 962.674 341.993 962.692 341.892L966.347 340.711C966.622 340.597 967.02 340.398 967.541 340.113C968.914 339.27 970.217 338.319 971.438 337.267C973.776 335.491 975.973 333.536 978.007 331.418C979.928 329.156 981.624 326.711 983.07 324.118C980.51 325.223 978.017 326.477 975.604 327.875C975.029 328.003 974.493 328.266 974.04 328.643C973.608 329.005 973.088 329.245 972.533 329.341C972.416 329.519 972.266 329.674 972.092 329.796C971.43 330.5 970.84 331.268 970.328 332.087L970.655 331.931L970.471 332.215L970.314 332.03L970.2 332.315C969.555 332.134 968.919 331.921 968.295 331.675L968.38 331.191C968.11 331.191 967.882 330.892 967.698 330.251C967.553 329.79 967.472 329.312 967.456 328.828C968.119 327.757 968.871 326.743 969.703 325.797C971.125 323.962 972.12 322.838 972.547 322.425C972.973 322.012 973.258 321.415 973.812 320.589L974.139 320.419L974.054 320.29C974.723 319.536 975.718 318.426 977.04 316.975C977.119 316.687 977.283 316.429 977.51 316.235C977.046 316.373 976.57 316.464 976.088 316.505L976.216 316.363H975.946V316.562C975.69 316.676 974.339 317.402 971.907 318.739C970.637 319.475 969.236 319.959 967.783 320.162C967.655 320.162 967.57 320.063 967.555 319.835C967.303 319.774 967.04 319.774 966.788 319.835C966.364 319.312 965.969 318.766 965.607 318.199C965.231 317.66 965.069 317.001 965.152 316.349C965.165 315.935 965.262 315.528 965.437 315.153C965.268 314.769 965.204 314.347 965.252 313.93C965.309 313.56 965.849 313.019 966.873 312.307C967.57 311.768 968.341 311.331 969.162 311.012C969.392 310.738 969.717 310.56 970.072 310.514C970.309 310.459 970.517 310.317 970.655 310.116L970.812 310.301C970.812 309.931 970.911 309.746 971.096 309.732C971.281 309.718 971.239 309.732 971.381 309.903C971.579 309.726 971.793 309.569 972.021 309.433C972.021 309.518 972.134 309.547 972.177 309.547L972.49 309.319C972.618 309.205 972.717 309.205 972.76 309.319V309.106L972.988 309.291C973.057 309.184 973.152 309.097 973.264 309.038C973.376 308.978 973.501 308.948 973.628 308.949C973.727 308.949 973.827 308.835 973.955 308.65L974.211 308.48L974.296 308.679C974.478 308.519 974.708 308.424 974.95 308.408V308.48L975.334 308.238L975.448 308.636C975.457 308.428 975.532 308.229 975.661 308.067C975.988 308.067 976.13 308.223 976.102 308.366L975.988 308.522V308.65L975.832 308.465L975.647 308.75L975.519 308.835H975.377L975.178 309.547C975.131 309.532 975.082 309.532 975.035 309.547C974.845 309.597 974.667 309.686 974.513 309.808C974.359 309.931 974.231 310.084 974.139 310.258L974.054 310.059L973.67 310.372V310.5C973.592 310.844 973.437 311.165 973.215 311.439C972.709 311.724 972.257 312.095 971.878 312.535C971.864 312.577 971.864 312.622 971.878 312.663L972.106 312.777C972.106 312.597 972.348 312.412 972.831 312.222C973.301 312.051 973.556 311.952 973.599 311.952C973.645 311.969 973.695 311.969 973.741 311.952C973.823 311.948 973.901 311.914 973.959 311.856C974.017 311.798 974.051 311.72 974.054 311.639C974.933 311.501 975.786 311.232 976.585 310.842L979.088 309.774C979.539 309.593 979.98 309.388 980.411 309.163C980.479 309.189 980.555 309.189 980.624 309.163L980.923 309.063C981.04 309.01 981.165 308.977 981.292 308.963H981.491C981.872 308.79 982.242 308.595 982.601 308.38L983.212 308.252H983.752C984.008 308.195 984.252 308.099 984.478 307.967C984.495 307.988 984.517 308.005 984.541 308.018C984.566 308.03 984.593 308.037 984.62 308.038C984.786 307.982 984.94 307.895 985.075 307.782C985.192 307.805 985.313 307.805 985.43 307.782C985.743 307.732 986.042 307.62 986.312 307.455C986.57 307.299 986.854 307.192 987.151 307.142C987.421 307.142 987.578 307.37 987.635 307.925C987.883 308.127 988.065 308.399 988.156 308.706C988.247 309.014 988.244 309.341 988.147 309.646C988.305 309.751 988.437 309.893 988.531 310.058C988.625 310.224 988.678 310.41 988.687 310.6C988.687 311.069 988.829 311.511 988.914 311.909C988.604 312.236 988.383 312.638 988.275 313.076C987.891 313.389 987.293 313.83 986.483 314.413L986.739 314.328L986.298 314.641H986.213C985.199 315.345 984.247 316.136 983.369 317.003C982.438 317.844 981.586 318.768 980.823 319.764L981.221 319.593L981.036 319.807L981.634 319.679C982.368 319.499 983.083 319.246 983.767 318.924H984.378C984.446 318.913 984.511 318.886 984.565 318.843C984.62 318.801 984.663 318.746 984.691 318.682C984.962 318.687 985.226 318.591 985.43 318.412L985.814 318.227C985.814 318.227 985.814 318.369 985.573 318.526L986.042 318.341L986.113 318.412L986.298 318.256C986.298 318.256 986.298 318.256 986.383 318.256C986.198 318.256 986.383 318.17 986.966 317.928L987.123 318.113C987.126 318.033 987.161 317.957 987.219 317.901C987.278 317.845 987.355 317.814 987.436 317.814L987.72 317.914C987.953 317.736 988.227 317.618 988.516 317.572C989.014 317.572 989.441 318.184 989.796 319.536C990.152 320.888 990.635 321.557 991.218 321.5C991.592 322.253 991.74 323.098 991.645 323.933L991.986 324.033ZM976.799 307.853L976.614 308.081L976.372 307.754L976.799 307.853ZM986.909 322.88C986.597 322.951 986.127 323.094 985.487 323.293C985.159 323.756 984.954 324.294 984.89 324.858L980.894 331.091C983.647 329 985.724 326.144 986.867 322.88H986.909Z" fill="white"/>
<path d="M396.313 389.815C398.284 390.384 400.092 391.413 401.589 392.818C402.063 393.238 402.514 393.685 402.94 394.155C404.073 395.29 404.72 396.821 404.746 398.424C404.735 399.288 404.581 400.144 404.29 400.957C403.653 402.531 402.738 403.977 401.589 405.226C399.734 407.31 397.611 409.138 395.275 410.662C391.897 412.989 388.224 414.855 384.353 416.212C382.425 416.886 380.434 417.363 378.409 417.635C377.603 417.744 376.791 417.796 375.978 417.791C374.848 417.791 373.72 417.691 372.607 417.493C370.003 417.058 367.475 416.253 365.099 415.102C364.599 414.836 364.123 414.527 363.677 414.177C363.385 413.945 363.197 413.608 363.151 413.238C363.175 413.045 363.245 412.861 363.354 412.701C363.462 412.54 363.607 412.407 363.777 412.313C364.161 412.005 364.6 411.774 365.071 411.63C365.155 411.613 365.242 411.613 365.327 411.63C365.54 411.63 365.696 411.729 365.739 412.042C365.782 412.356 365.853 412.498 365.895 412.711C366.101 413.31 366.483 413.833 366.99 414.211C367.497 414.59 368.107 414.806 368.739 414.832C369.01 414.832 369.166 414.732 369.209 414.476C369.251 414.22 369.422 413.65 369.522 413.181C370.339 409.802 371.36 406.475 372.579 403.22C374.001 399.392 375.423 395.564 376.774 391.836C378.011 388.364 379.305 384.891 380.542 381.419C381.49 378.879 382.301 376.29 382.974 373.664C383.141 372.95 383.231 372.22 383.244 371.487C383.257 371.027 383.128 370.575 382.875 370.192C382.813 370.113 382.761 370.027 382.718 369.936C382.718 369.822 382.718 369.779 382.718 369.722C382.718 369.665 382.86 369.409 383.074 369.409H383.287C383.479 369.423 383.67 369.456 383.856 369.509C385.444 370.041 386.899 370.91 388.122 372.056C388.466 372.361 388.741 372.736 388.93 373.155C389.118 373.575 389.216 374.029 389.217 374.489V374.646C389.183 375.673 389.04 376.694 388.79 377.691C388.077 380.592 387.179 383.443 386.103 386.229L385.32 388.292H385.434C385.534 388.292 385.591 388.292 385.69 388.15C386.316 387.624 386.927 387.154 387.496 386.585C388.065 386.016 388.691 385.56 389.316 385.091C392.036 383.198 394.552 381.028 396.825 378.616C398.7 376.64 400.285 374.407 401.532 371.985C402.095 370.896 402.479 369.724 402.669 368.513C402.669 368.043 402.769 367.63 402.769 367.175C402.766 366.65 402.714 366.125 402.612 365.61C402.584 365.437 402.506 365.276 402.387 365.147C402.268 365.018 402.114 364.926 401.944 364.884C401.103 364.72 400.253 364.601 399.399 364.528C399.043 364.528 398.688 364.528 398.318 364.528C395.648 364.576 392.999 365.012 390.454 365.823C386.291 367.002 382.417 369.032 379.078 371.786C377.265 373.21 375.72 374.944 374.513 376.908C373.792 378.042 373.309 379.311 373.091 380.637C373.091 380.893 373.091 381.206 373.091 381.462C373.091 381.718 373.091 382.031 373.091 382.302C373.105 382.47 373.166 382.631 373.266 382.767C373.367 382.902 373.503 383.007 373.66 383.07C373.919 383.147 374.154 383.289 374.342 383.483C374.342 383.597 374.442 383.639 374.442 383.739C374.442 383.838 374.442 383.895 374.229 383.952C374.039 384.05 373.83 384.103 373.617 384.109C373.503 384.109 373.347 384.109 373.247 384.009C371.966 383.6 370.826 382.838 369.956 381.812C369.086 380.785 368.522 379.535 368.327 378.203C368.307 377.929 368.307 377.653 368.327 377.378C368.358 375.952 368.708 374.552 369.351 373.28C370.048 371.93 370.918 370.677 371.939 369.551C374.745 366.502 378.194 364.115 382.036 362.564C384.557 361.429 387.222 360.644 389.956 360.231C391.239 360.014 392.537 359.895 393.838 359.875C395.005 359.866 396.168 359.986 397.308 360.231C398.871 360.567 400.36 361.184 401.702 362.052C403.378 363.171 404.878 364.533 406.153 366.094C407.359 367.605 408.015 369.482 408.016 371.416C407.997 372.06 407.93 372.702 407.817 373.337C407.221 375.858 406.031 378.2 404.347 380.167C402.091 382.922 399.458 385.346 396.526 387.367C395.56 388.156 394.522 388.851 393.426 389.445C394.398 389.48 395.364 389.604 396.313 389.815V389.815ZM398.659 394.013C398.159 393.951 397.656 393.918 397.152 393.913C395.816 393.943 394.484 394.081 393.17 394.326C391.23 394.667 389.326 395.186 387.482 395.877C385.619 396.603 383.756 397.3 381.893 398.154C381.697 398.242 381.521 398.372 381.379 398.534C381.237 398.696 381.131 398.887 381.069 399.093C380.855 399.662 380.656 400.231 380.386 400.801C379.014 404.163 377.841 407.603 376.874 411.103C376.618 412.085 376.362 413.024 376.148 413.949C376.125 414.067 376.125 414.188 376.148 414.305C376.148 414.305 376.148 414.405 376.262 414.405C376.399 414.423 376.538 414.423 376.674 414.405C377.087 414.248 377.499 414.149 377.912 413.992C381.028 412.979 384.001 411.568 386.757 409.794C390.255 407.694 393.371 405.014 395.972 401.868C397.297 400.314 398.315 398.523 398.972 396.589C399.184 396.006 399.322 395.399 399.384 394.781C399.256 394.013 399.214 394.013 398.659 394.013Z" fill="white"/>
<path d="M418.184 391.622C419.579 388.991 421.186 386.478 422.99 384.109C424.1 382.823 425.277 381.598 426.517 380.438C426.752 380.194 427.032 380 427.342 379.866C427.652 379.731 427.985 379.66 428.323 379.655C428.68 379.654 429.033 379.727 429.361 379.868C430.184 380.12 430.969 380.484 431.693 380.95C432.094 381.201 432.421 381.556 432.638 381.976C432.856 382.396 432.957 382.868 432.93 383.34C432.925 383.651 432.891 383.961 432.831 384.265C432.731 384.568 432.678 384.885 432.674 385.205C432.695 385.791 432.82 386.37 433.044 386.912C433.196 387.367 433.401 387.801 433.656 388.207C433.812 388.463 433.912 388.563 434.068 388.563C434.171 388.585 434.278 388.585 434.381 388.563C434.584 388.498 434.794 388.459 435.007 388.449H435.106C435.263 388.449 435.319 388.449 435.319 388.606C435.346 388.694 435.346 388.788 435.319 388.876C435.219 389.07 435.062 389.229 434.869 389.331C434.675 389.433 434.455 389.472 434.239 389.445C432.598 389.346 431.063 388.599 429.973 387.368C429.5 386.827 429.111 386.218 428.821 385.56C428.678 385.29 428.622 385.19 428.522 385.19C428.423 385.19 428.309 385.29 428.152 385.503C426.378 387.498 424.784 389.645 423.389 391.921C421.235 395.409 419.334 399.047 417.7 402.807C416.708 405.005 415.563 407.13 414.273 409.168C414.058 409.536 413.766 409.853 413.418 410.098C413.069 410.344 412.672 410.512 412.254 410.591C411.42 410.757 410.573 410.842 409.723 410.847C409.377 410.868 409.03 410.868 408.685 410.847C408.473 410.849 408.263 410.809 408.067 410.729C407.872 410.649 407.694 410.53 407.544 410.38C407.395 410.231 407.276 410.053 407.196 409.857C407.116 409.661 407.076 409.451 407.078 409.239C406.983 408.641 406.936 408.037 406.936 407.432C406.938 406.98 406.972 406.528 407.035 406.08C407.682 402.24 408.546 398.439 409.623 394.696C410.505 391.537 411.453 388.378 412.467 385.219C412.806 384.148 413.068 383.054 413.249 381.946C413.249 381.789 413.249 381.59 413.249 381.434C413.255 381.231 413.217 381.03 413.138 380.844C413.06 380.657 412.943 380.49 412.794 380.352C412.711 380.244 412.658 380.117 412.638 379.982C412.647 379.902 412.682 379.827 412.737 379.769C412.802 379.699 412.882 379.644 412.97 379.61C413.059 379.575 413.155 379.562 413.249 379.57C413.562 379.57 413.932 379.669 414.287 379.769C415.714 380.318 417.044 381.091 418.227 382.06C418.578 382.31 418.861 382.644 419.05 383.032C419.239 383.42 419.327 383.849 419.307 384.28V384.493C419.131 386.095 418.788 387.673 418.283 389.203C417.814 390.754 417.345 392.263 416.932 393.814C416.932 393.814 416.932 393.913 416.932 394.07C417.302 393.173 417.715 392.405 418.184 391.622Z" fill="white"/>
<path d="M462.494 390.327C461.704 391.81 460.75 393.199 459.65 394.468C457.73 396.759 455.711 398.88 453.692 401.057C452.967 401.825 452.27 402.551 451.573 403.277C449.696 405.163 447.531 406.739 445.16 407.944C443.881 408.568 442.486 408.917 441.064 408.969C440.719 408.998 440.371 408.998 440.026 408.969C439.132 408.986 438.241 408.847 437.395 408.556C436.703 408.3 436.07 407.905 435.534 407.396C434.999 406.888 434.573 406.275 434.281 405.596C433.788 404.464 433.49 403.256 433.399 402.025C433.399 401.413 433.3 400.843 433.3 400.217C433.395 396.296 434.576 392.478 436.713 389.189C437.702 387.5 438.885 385.934 440.239 384.522C441.827 382.765 443.811 381.413 446.027 380.58C446.781 380.338 447.568 380.218 448.359 380.224C449.602 380.228 450.82 380.567 451.886 381.206C452.717 381.631 453.483 382.173 454.161 382.814C454.548 383.181 454.857 383.622 455.069 384.111C455.282 384.6 455.394 385.127 455.398 385.66C455.399 386.045 455.347 386.428 455.242 386.798C454.97 387.925 454.44 388.973 453.692 389.858C451.856 392.06 449.514 393.784 446.866 394.881C445.897 395.286 444.859 395.499 443.809 395.507C442.893 395.5 441.985 395.341 441.121 395.038C440.94 394.958 440.748 394.905 440.552 394.881C440.282 394.881 440.239 395.038 440.026 395.55C439.2 397.409 438.677 399.388 438.476 401.413C438.449 401.792 438.449 402.172 438.476 402.551C438.437 403.962 438.776 405.357 439.457 406.592C439.723 407.085 440.116 407.498 440.595 407.788C440.756 407.874 440.94 407.909 441.121 407.887C441.257 407.912 441.397 407.912 441.533 407.887C442.734 407.481 443.855 406.87 444.847 406.08C446.143 405.113 447.387 404.078 448.573 402.978C452.611 399.349 456.38 395.408 460.262 391.594C460.987 390.925 461.684 390.171 462.437 389.531C462.537 389.431 462.651 389.274 462.807 389.274C462.964 389.274 462.907 389.274 462.964 389.274C462.898 389.659 462.736 390.021 462.494 390.327ZM451.687 383.212C451.55 383.188 451.411 383.188 451.274 383.212C450.542 383.419 449.842 383.731 449.198 384.137C445.686 386.392 442.858 389.566 441.022 393.316C440.971 393.393 440.937 393.48 440.922 393.572C440.922 393.672 441.021 393.672 441.277 393.672C441.964 393.651 442.644 393.531 443.297 393.316C446.504 392.32 449.232 390.177 450.962 387.296C451.623 386.316 451.984 385.164 452 383.981V383.782C451.943 383.44 451.943 383.284 451.687 383.284V383.212Z" fill="white"/>
<path d="M493.566 389.815C491.522 393.029 489.296 396.122 486.897 399.079C485.233 401.156 483.683 403.277 481.919 405.297C481.135 406.205 480.269 407.039 479.331 407.788C478.466 408.463 477.424 408.873 476.331 408.969C475.952 408.998 475.572 408.998 475.193 408.969H474.681C474.249 408.897 473.84 408.723 473.488 408.46C473.137 408.198 472.854 407.855 472.662 407.46C472.264 406.566 472.07 405.594 472.093 404.614C472.123 403.381 472.261 402.152 472.505 400.943C472.536 400.721 472.536 400.496 472.505 400.274V399.961C472.079 400.53 471.666 401.1 471.254 401.726C470.346 403.103 469.344 404.415 468.254 405.653C467.685 406.279 467.116 406.948 466.49 407.517C465.456 408.512 464.14 409.163 462.722 409.381C462.307 409.443 461.889 409.476 461.471 409.481H461.015C460.439 409.509 459.867 409.36 459.377 409.055C458.887 408.75 458.501 408.303 458.271 407.773C457.925 407.135 457.712 406.433 457.645 405.71C457.542 404.956 457.49 404.195 457.489 403.433C457.489 402.807 457.489 402.181 457.489 401.569C457.762 398.154 458.653 394.818 460.12 391.722C461.244 388.918 462.939 386.379 465.097 384.265C465.82 383.568 466.595 382.926 467.415 382.344C468.64 381.471 470.105 380.999 471.61 380.992C472.776 381.012 473.924 381.279 474.98 381.775C475.913 382.198 476.8 382.718 477.625 383.326C477.705 383.431 477.807 383.519 477.923 383.582C478.08 383.696 478.137 383.739 478.236 383.739C478.336 383.739 478.393 383.639 478.45 383.44C478.857 382.43 479.115 381.366 479.218 380.281C479.218 379.698 479.374 379.441 479.687 379.441C479.911 379.455 480.127 379.529 480.313 379.655C481.953 380.446 483.32 381.709 484.237 383.283C484.524 383.806 484.671 384.395 484.664 384.991C484.692 385.213 484.692 385.438 484.664 385.66C484.431 386.873 484.064 388.057 483.569 389.189C482.545 391.665 481.351 394.056 480.412 396.546C479.644 398.666 478.606 400.73 477.881 402.907C477.536 403.786 477.242 404.684 476.999 405.596C476.945 405.873 476.912 406.154 476.9 406.436C476.9 406.635 476.9 406.792 476.9 407.005C476.9 407.218 476.9 407.261 476.999 407.261C477.074 407.248 477.143 407.214 477.198 407.162C477.49 406.972 477.753 406.742 477.98 406.479C479.542 404.931 481.009 403.292 482.374 401.569C485.076 398.353 487.664 395.094 490.452 392.035C491.32 391.058 492.272 390.158 493.296 389.346C493.395 389.232 493.495 389.075 493.651 389.075C493.808 389.075 493.751 389.075 493.808 389.075C493.785 389.337 493.702 389.59 493.566 389.815V389.815ZM462.779 406.82C462.785 407.032 462.819 407.243 462.878 407.446C462.878 407.702 463.035 407.859 463.134 407.859C463.234 407.859 463.348 407.745 463.504 407.645C463.66 407.546 464.115 407.133 464.428 406.82C465.92 405.312 467.303 403.7 468.566 401.996C470.387 399.876 472.036 397.599 473.8 395.422C473.959 395.178 474.097 394.921 474.212 394.653C475.037 392.32 475.975 390.043 476.9 387.752C477.032 387.532 477.105 387.282 477.113 387.026C477.07 386.238 476.877 385.465 476.544 384.749C476.499 384.646 476.425 384.559 476.332 384.496C476.239 384.433 476.13 384.397 476.018 384.393H475.876C475.197 384.482 474.543 384.71 473.956 385.062C472.717 385.819 471.616 386.782 470.7 387.908C469.052 389.739 467.62 391.754 466.433 393.913C465.161 396.396 464.137 398.999 463.376 401.683C462.927 402.999 462.683 404.377 462.651 405.767C462.722 406.023 462.722 406.379 462.779 406.82Z" fill="white"/>
<path d="M512.892 404.259C515.992 399.918 519.262 395.607 522.576 391.366C523.102 390.689 523.672 390.047 524.282 389.445C524.439 389.346 524.538 389.132 524.737 389.089C524.936 389.047 524.737 389.189 524.737 389.289C524.726 389.399 524.692 389.505 524.638 389.602C523.657 391.688 522.516 393.696 521.225 395.607C519.405 398.254 517.542 400.843 515.636 403.376C514.541 404.799 513.461 406.222 512.266 407.475C511.631 408.096 510.876 408.582 510.047 408.902C509.218 409.223 508.333 409.371 507.445 409.339C506.806 409.316 506.199 409.058 505.739 408.613C505.29 408.305 504.92 407.895 504.658 407.418C503.281 405.419 502.265 403.194 501.658 400.843C501.402 399.705 501.089 398.623 500.932 397.471C500.932 396.959 500.932 396.446 500.833 395.92C500.619 395.92 500.52 396.076 500.406 396.176C499.069 397.684 497.775 399.235 496.524 400.786C495.699 401.825 494.874 402.864 493.993 403.903C493.781 404.164 493.622 404.463 493.523 404.785C493.225 405.71 492.912 406.592 492.599 407.517C492.546 407.715 492.447 407.897 492.312 408.05C492.176 408.204 492.007 408.323 491.817 408.4C491.501 408.551 491.173 408.675 490.836 408.77C489.982 408.93 489.116 409.015 488.248 409.026C487.836 409.054 487.422 409.054 487.011 409.026C486.854 409.026 486.698 409.026 486.598 409.026C486.029 408.869 485.816 408.713 485.816 408.4C485.808 408.186 485.842 407.974 485.916 407.773C487.522 402.708 489.229 397.627 490.935 392.547C492.912 386.855 494.818 381.049 496.624 375.3C497.587 372.322 498.398 369.297 499.055 366.236C499.304 364.99 499.48 363.731 499.581 362.465V362.052C499.59 361.481 499.426 360.921 499.112 360.444C499.039 360.335 499.004 360.205 499.013 360.074C499.013 359.875 499.155 359.718 499.468 359.718C499.704 359.716 499.938 359.769 500.15 359.875C501.662 360.315 503.069 361.055 504.288 362.052C504.711 362.395 505.051 362.829 505.282 363.322C505.514 363.815 505.631 364.354 505.625 364.898C505.56 366.642 505.336 368.375 504.957 370.078C503.83 375.157 502.362 380.153 500.563 385.034C499.311 388.563 498.017 392.149 496.723 395.564V395.763C496.88 395.763 496.936 395.607 496.993 395.507C499.447 392.383 502.143 389.457 505.056 386.756C507.477 384.534 510.095 382.539 512.877 380.793C513.554 380.344 514.342 380.093 515.153 380.068C515.843 380.095 516.517 380.291 517.115 380.637C517.38 380.83 517.661 381.001 517.954 381.149C518.215 381.286 518.434 381.49 518.589 381.74C518.744 381.991 518.829 382.278 518.836 382.572C518.821 382.834 518.769 383.093 518.679 383.34C518.319 384.135 517.84 384.869 517.257 385.518C515.739 387.164 514.078 388.674 512.294 390.029C510.787 391.224 509.237 392.206 507.687 393.245C506.905 393.7 506.592 394.013 506.592 394.582C506.601 394.938 506.673 395.29 506.805 395.621C507.374 397.542 508.043 399.463 508.569 401.427C509.095 403.391 509.493 405.055 509.991 406.806C510.019 406.978 510.093 407.14 510.204 407.275C511.201 406.365 512.102 405.354 512.892 404.259V404.259ZM507.303 389.132C509.35 388.01 511.146 386.48 512.579 384.635C510.681 385.963 508.915 387.469 507.303 389.132V389.132Z" fill="white"/>
<path d="M544.787 389.659C542.612 392.818 540.237 395.763 537.805 398.666C536.554 400.089 535.416 401.626 534.122 402.935C532.412 404.95 530.507 406.79 528.434 408.428C527.079 409.498 525.396 410.066 523.67 410.036C523.344 410.064 523.015 410.064 522.689 410.036C521.945 409.975 521.241 409.674 520.682 409.179C520.124 408.684 519.74 408.021 519.589 407.29C519.358 406.66 519.233 405.996 519.219 405.326C519.185 402.89 519.516 400.463 520.2 398.125C521.395 394.397 522.788 390.726 524.04 386.983C524.668 385.2 525.204 383.386 525.647 381.547C525.834 380.855 526.076 380.18 526.372 379.527C526.397 379.425 526.456 379.335 526.538 379.271C526.621 379.206 526.722 379.171 526.827 379.171H526.983C527.33 379.228 527.662 379.349 527.965 379.527C529.131 379.997 530.151 380.768 530.923 381.761C531.436 382.432 531.725 383.249 531.747 384.095C531.735 384.372 531.702 384.648 531.648 384.92C531.179 387.049 530.556 389.142 529.785 391.181C528.903 393.515 527.865 395.749 527.14 398.125C526.472 400.089 525.718 402.01 525.021 403.974C524.643 404.991 524.399 406.053 524.296 407.133C524.296 407.347 524.296 407.546 524.296 407.759C524.299 407.991 524.352 408.219 524.452 408.428C524.552 408.741 524.666 408.841 524.822 408.841C524.964 408.828 525.103 408.795 525.234 408.741C526.414 408.086 527.507 407.288 528.491 406.365C529.742 405.226 530.88 403.931 532.017 402.679C533.155 401.427 534.606 399.833 535.843 398.41L540.706 393.074C541.89 391.804 543.153 390.611 544.489 389.502C544.645 389.402 544.745 389.246 545.001 389.246V389.346C544.944 389.502 544.844 389.545 544.787 389.659ZM535.885 368.997C535.686 369.566 535.53 370.078 535.374 370.59C535.142 371.376 534.771 372.113 534.279 372.767C533.827 373.471 533.545 374.27 533.454 375.101C533.354 375.67 533.255 376.297 533.141 376.866C533.027 377.435 532.984 377.535 532.572 377.535H532.33C531.734 377.472 531.156 377.299 530.624 377.022C530.135 376.76 529.718 376.382 529.411 375.92C529.103 375.458 528.914 374.928 528.861 374.375C528.704 373.55 528.761 372.725 528.661 371.885C528.661 371.529 528.661 371.117 528.548 370.704V370.291C528.542 369.883 528.615 369.477 528.761 369.096C529.23 367.673 529.742 366.25 530.311 364.827L530.624 363.902C530.66 363.807 530.724 363.726 530.808 363.67C530.892 363.614 530.992 363.586 531.093 363.589H531.193C531.465 363.608 531.731 363.681 531.975 363.803C533.123 364.228 534.177 364.876 535.075 365.709C535.364 365.921 535.601 366.194 535.771 366.509C535.941 366.824 536.038 367.173 536.056 367.531V368.043C536.054 368.368 535.996 368.691 535.885 368.997Z" fill="white"/>
<path d="M551.685 386.087C553.18 384.453 554.807 382.944 556.548 381.576C557.567 380.812 558.68 380.185 559.862 379.712C560.131 379.562 560.436 379.488 560.744 379.498C560.9 379.498 561.113 379.498 561.255 379.498C562.818 379.785 564.301 380.401 565.607 381.306C565.945 381.536 566.222 381.846 566.413 382.208C566.604 382.57 566.703 382.974 566.702 383.383C566.729 383.591 566.729 383.801 566.702 384.009C566.565 384.848 566.321 385.666 565.977 386.443C564.939 389.032 563.858 391.565 562.877 394.155C562.031 396.237 561.305 398.366 560.701 400.53C560.388 401.768 559.919 402.964 559.606 404.202C559.548 404.638 559.462 405.071 559.35 405.497V405.81C559.323 405.912 559.323 406.02 559.35 406.123C559.571 406.01 559.766 405.849 559.919 405.653C561.341 404.045 562.763 402.494 564.185 400.843C566.204 398.254 568.223 395.706 570.243 393.116C571.489 391.535 572.833 390.033 574.267 388.62C574.537 388.406 574.736 388.193 574.992 387.994C575.062 388.015 575.136 388.015 575.206 387.994C575.206 387.994 575.206 388.108 575.206 388.15C575.203 388.239 575.183 388.326 575.146 388.406C575.109 388.487 575.057 388.56 574.992 388.62C574.48 389.602 573.855 390.541 573.286 391.466C571.992 393.486 570.641 395.393 569.247 397.314C567.583 399.591 565.991 401.925 564.327 404.145C563.556 405.191 562.71 406.181 561.796 407.105C560.707 408.146 559.264 408.736 557.757 408.755C557.501 408.755 557.245 408.755 557.032 408.755C556.683 408.748 556.336 408.71 555.994 408.641C555.613 408.581 555.252 408.427 554.945 408.194C554.637 407.96 554.392 407.655 554.231 407.304C553.867 406.466 553.66 405.569 553.619 404.657V403.974C553.623 401.789 553.973 399.618 554.657 397.542C555.795 393.657 557.288 389.886 558.795 386.158C558.895 385.902 558.994 385.688 559.108 385.432V385.333H558.994C558.838 385.333 558.838 385.432 558.738 385.489C558.019 386.058 557.344 386.681 556.719 387.353C554.584 389.622 552.598 392.027 550.775 394.554C548.857 397.178 547.091 399.91 545.485 402.736C544.973 403.675 544.618 404.7 544.148 405.696C543.835 406.365 543.466 407.034 543.21 407.759C543.141 407.943 543.021 408.103 542.865 408.221C542.709 408.339 542.523 408.411 542.328 408.428C541.819 408.537 541.299 408.589 540.778 408.585C540.309 408.585 539.896 408.585 539.484 408.585C539.152 408.538 538.824 408.467 538.503 408.371C537.877 408.172 537.721 408.015 537.721 407.389V406.72C537.923 404.96 538.305 403.224 538.858 401.541C540.152 397.556 541.446 393.558 542.797 389.63C543.466 387.609 544.219 385.631 544.874 383.611L545.329 381.59C545.394 381.32 545.432 381.043 545.442 380.765C545.442 380.566 545.442 380.409 545.442 380.196V379.783C545.43 379.705 545.437 379.626 545.461 379.551C545.485 379.477 545.527 379.409 545.582 379.354C545.638 379.298 545.705 379.256 545.78 379.232C545.854 379.208 545.934 379.202 546.011 379.214H546.267C546.759 379.338 547.235 379.515 547.689 379.74C548.776 380.253 549.774 380.935 550.647 381.761C550.912 381.98 551.124 382.257 551.267 382.57C551.41 382.883 551.48 383.224 551.472 383.568C551.5 383.743 551.5 383.92 551.472 384.095C551.372 384.82 551.216 385.518 551.059 386.315C550.993 386.442 550.959 386.584 550.96 386.727C550.943 386.812 550.943 386.899 550.96 386.983C551.233 386.711 551.476 386.411 551.685 386.087V386.087Z" fill="white"/>
<path d="M583.126 403.077C581.919 404.714 580.525 406.203 578.974 407.517C577.38 408.868 575.374 409.636 573.286 409.694H573.129C572.662 409.695 572.203 409.576 571.795 409.35C571.387 409.123 571.044 408.796 570.797 408.4C570.363 407.833 570.049 407.184 569.873 406.493C569.577 405.34 569.433 404.154 569.446 402.964C569.419 402.49 569.419 402.015 569.446 401.541C569.576 399.574 569.939 397.63 570.527 395.749C571.825 391.834 573.808 388.182 576.386 384.963C576.858 384.324 577.376 383.72 577.936 383.155C579.068 382.076 580.483 381.34 582.017 381.035C582.446 380.934 582.885 380.881 583.325 380.879C584.044 380.901 584.757 381.021 585.444 381.234C586.777 381.679 588.034 382.327 589.17 383.155L589.739 383.568C589.755 383.595 589.778 383.619 589.805 383.636C589.832 383.653 589.863 383.664 589.895 383.668C589.895 383.668 589.994 383.568 590.051 383.468C590.108 383.25 590.142 383.026 590.151 382.8C590.146 382.613 590.092 382.432 589.994 382.273C589.918 382.189 589.859 382.09 589.822 381.982C589.786 381.875 589.772 381.76 589.781 381.647C589.773 381.574 589.781 381.5 589.804 381.43C589.826 381.36 589.864 381.296 589.914 381.242C589.964 381.188 590.025 381.145 590.093 381.117C590.161 381.089 590.234 381.075 590.307 381.078H590.506C590.751 381.166 590.981 381.291 591.189 381.448C592.292 382.298 593.224 383.351 593.934 384.55C594.456 385.502 594.739 386.566 594.758 387.652V388.321C594.704 389.941 594.495 391.551 594.133 393.131C593.362 396.121 592.412 399.063 591.289 401.939C589.866 405.724 588.274 409.396 586.624 413.067C585.376 415.825 583.717 418.377 581.704 420.637C580.132 422.465 577.977 423.691 575.603 424.11C574.729 424.254 573.844 424.32 572.958 424.309C571.402 424.34 569.855 424.059 568.408 423.483C567.997 423.296 567.614 423.052 567.27 422.758C567.012 422.563 566.799 422.315 566.647 422.03C566.495 421.745 566.407 421.43 566.389 421.107C566.39 420.77 566.458 420.436 566.588 420.125L566.744 419.656C566.901 419.442 567.014 419.086 567.313 419.086C567.612 419.086 567.626 419.499 567.74 419.698C568.02 420.408 568.518 421.011 569.162 421.42C570.551 422.305 572.13 422.851 573.769 423.014H573.883C574.098 423.005 574.302 422.913 574.452 422.758C575.042 422.298 575.563 421.756 576.002 421.15C576.954 419.868 577.751 418.478 578.376 417.009C580.746 411.878 582.789 406.603 584.491 401.213V401.128C584.107 401.726 583.638 402.394 583.126 403.077ZM575.092 407.674C575.248 407.887 575.305 407.987 575.404 407.987C575.476 407.981 575.546 407.96 575.61 407.926C575.674 407.892 575.729 407.844 575.774 407.788C576.536 407.21 577.228 406.547 577.836 405.81C579.258 404.259 580.481 402.551 581.775 400.9C583.439 398.823 584.989 396.702 586.695 394.682C586.869 394.434 586.989 394.153 587.051 393.856C587.307 393.173 587.52 392.433 587.776 391.722C588.245 390.299 588.658 388.876 589.127 387.325C589.224 387.115 589.278 386.887 589.283 386.656C589.283 386.499 589.283 386.386 589.283 386.229C589.125 385.628 588.88 385.053 588.558 384.521C588.493 384.404 588.395 384.308 588.277 384.245C588.158 384.182 588.024 384.154 587.89 384.166H587.733C587.298 384.273 586.88 384.446 586.496 384.678C585.789 385.081 585.127 385.558 584.52 386.101C582.653 387.615 581.077 389.458 579.87 391.537C578.076 394.575 576.644 397.813 575.603 401.185C575.101 402.579 574.823 404.044 574.779 405.525C574.699 406.256 574.807 406.996 575.092 407.674V407.674Z" fill="white"/>
<path d="M632.513 370.291C632.867 370.512 633.196 370.77 633.495 371.06C634 371.458 634.402 371.973 634.664 372.56C634.927 373.148 635.043 373.79 635.002 374.432V374.845C634.963 375.974 634.825 377.098 634.59 378.203C633.937 381.051 633.052 383.84 631.945 386.542C631.589 387.524 631.177 388.52 630.807 389.502C630.762 389.602 630.728 389.707 630.707 389.815C630.707 389.972 630.864 389.972 631.12 389.972C632.414 389.858 633.651 389.815 634.945 389.815H635.983C637.802 389.745 639.616 390.045 641.316 390.697C641.942 390.933 642.52 391.28 643.022 391.722C643.131 391.822 643.218 391.943 643.279 392.077C643.34 392.212 643.374 392.357 643.378 392.505C643.367 392.681 643.309 392.851 643.209 392.997C643.108 393.142 642.97 393.257 642.809 393.33C642.787 393.341 642.763 393.347 642.738 393.347C642.713 393.347 642.689 393.341 642.667 393.33C642.553 393.33 642.51 393.23 642.453 393.116C642.426 392.947 642.426 392.774 642.453 392.604C642.453 392.192 642.297 392.035 641.885 392.035C641.682 392.007 641.476 392.007 641.273 392.035C641.047 392.004 640.817 392.004 640.591 392.035C639.51 392.135 638.472 392.035 637.434 392.192C635.244 392.379 633.068 392.707 630.921 393.173C630.529 393.286 630.13 393.371 629.726 393.43C629.549 393.463 629.384 393.543 629.247 393.66C629.109 393.777 629.005 393.928 628.944 394.098C628.333 395.521 627.764 396.944 627.138 398.367C625.176 403.021 623.313 407.731 621.706 412.498C621.237 413.736 620.824 415.031 620.469 416.326C620.365 416.682 620.183 417.011 619.938 417.289C619.692 417.567 619.388 417.787 619.047 417.934C618.252 418.238 617.409 418.397 616.558 418.403C615.91 418.392 615.266 418.306 614.638 418.147L614.126 417.934C613.949 417.84 613.801 417.698 613.701 417.525C613.6 417.351 613.551 417.152 613.558 416.952C613.538 416.815 613.538 416.676 613.558 416.539C614.126 414.775 614.695 413.067 615.264 411.303C616.572 407.574 617.966 403.846 619.416 400.175C619.985 398.752 620.554 397.329 621.123 395.906C621.123 395.806 621.222 395.649 621.279 395.536V395.436C621.279 395.223 621.279 395.166 620.966 395.123C619.49 394.869 618.09 394.286 616.871 393.415C615.914 392.784 615.147 391.903 614.653 390.868C614.487 390.456 614.4 390.017 614.397 389.573C614.397 389.104 614.653 388.847 615.008 388.847C615.092 388.825 615.18 388.825 615.264 388.847C616.547 389.231 617.709 389.942 618.634 390.911C618.74 391.041 618.817 391.192 618.861 391.354C618.905 391.515 618.915 391.684 618.89 391.85C618.89 392.263 618.89 392.419 619.16 392.419C619.278 392.443 619.399 392.443 619.516 392.419C620.577 392.232 621.616 391.937 622.616 391.537C622.929 391.537 622.986 391.181 623.085 390.925C623.711 389.417 624.28 387.923 624.849 386.357C626.039 383.358 627.074 380.299 627.949 377.193C628.496 375.408 628.863 373.573 629.044 371.714V371.558C629.05 371.427 629.025 371.297 628.971 371.178C628.917 371.059 628.834 370.955 628.731 370.875C628.262 370.445 627.922 369.893 627.75 369.281C627.636 369.011 627.593 368.911 627.437 368.911C627.353 368.889 627.265 368.889 627.181 368.911C624.388 369.789 621.811 371.243 619.616 373.18C619.044 373.742 618.564 374.39 618.193 375.101C617.394 376.658 616.787 378.307 616.387 380.011C616.327 380.18 616.293 380.357 616.288 380.537C616.295 380.64 616.332 380.738 616.395 380.82C616.459 380.901 616.545 380.961 616.643 380.992C616.684 381.014 616.719 381.044 616.747 381.081C616.774 381.118 616.792 381.161 616.8 381.206C616.8 381.206 616.8 381.362 616.8 381.419C616.745 381.538 616.66 381.638 616.552 381.711C616.444 381.784 616.318 381.826 616.188 381.832H616.075C615.949 381.82 615.828 381.782 615.719 381.718C614.739 381.295 613.875 380.642 613.2 379.815C612.524 378.988 612.057 378.011 611.837 376.965C611.755 376.539 611.721 376.104 611.737 375.67C611.754 374.96 611.82 374.251 611.937 373.55C612.33 371.468 613.449 369.592 615.093 368.257C618.833 365.052 623.413 362.987 628.29 362.308C629.731 362.098 631.185 361.993 632.641 361.995C633.58 361.995 634.561 361.995 635.485 362.095C638.913 362.308 642.325 362.878 645.681 363.29C648.038 363.615 650.413 363.786 652.792 363.803H654.029C654.997 363.772 655.955 363.6 656.873 363.29C657.285 363.191 657.442 363.134 657.442 362.878C657.46 362.755 657.46 362.63 657.442 362.508V362.308C657.42 362.125 657.451 361.939 657.532 361.772C657.613 361.606 657.739 361.466 657.897 361.369C658.025 361.306 658.166 361.272 658.309 361.27C658.606 361.284 658.885 361.411 659.091 361.625C659.543 362.09 659.927 362.617 660.229 363.191C660.879 364.29 661.318 365.501 661.523 366.762C661.554 366.932 661.554 367.105 661.523 367.275V367.431C661.534 367.793 661.436 368.15 661.24 368.455C661.045 368.76 660.762 368.998 660.428 369.139C659.557 369.626 658.581 369.894 657.584 369.921C657.157 369.921 656.745 369.921 656.333 369.921C654.878 369.9 653.425 369.8 651.981 369.623C648.881 369.253 645.781 368.683 642.667 368.271C640.286 367.897 637.881 367.707 635.471 367.702C634.959 367.702 634.49 367.702 633.978 367.702C632.419 367.71 630.868 367.935 629.371 368.37C630.498 368.87 631.555 369.516 632.513 370.291V370.291Z" fill="white"/>
<path d="M656.048 391.622C657.438 388.988 659.046 386.475 660.855 384.109C661.96 382.82 663.138 381.594 664.381 380.438C664.616 380.194 664.896 380 665.206 379.866C665.516 379.731 665.85 379.66 666.187 379.655C666.544 379.656 666.897 379.728 667.225 379.868C668.049 380.12 668.833 380.484 669.558 380.95C669.957 381.203 670.281 381.558 670.499 381.978C670.716 382.398 670.818 382.868 670.795 383.34C670.782 383.651 670.748 383.96 670.695 384.265C670.588 384.567 670.535 384.885 670.539 385.205C670.561 385.79 670.681 386.367 670.894 386.912C671.051 387.367 671.261 387.802 671.52 388.207C671.676 388.463 671.776 388.563 671.932 388.563C672.036 388.584 672.142 388.584 672.245 388.563C672.443 388.498 672.649 388.459 672.857 388.449H672.97C673.127 388.449 673.17 388.449 673.17 388.606C673.19 388.695 673.19 388.787 673.17 388.876C673.065 389.07 672.905 389.228 672.71 389.33C672.514 389.431 672.293 389.471 672.075 389.445C670.434 389.346 668.899 388.599 667.808 387.368C667.345 386.823 666.962 386.214 666.671 385.56C666.514 385.29 666.472 385.19 666.358 385.19C666.244 385.19 666.159 385.29 666.002 385.503C664.224 387.494 662.629 389.642 661.239 391.921C659.091 395.412 657.19 399.05 655.55 402.807C654.568 405.007 653.428 407.133 652.138 409.168C651.92 409.534 651.628 409.851 651.28 410.096C650.932 410.341 650.536 410.51 650.118 410.591C649.285 410.757 648.437 410.842 647.587 410.847C647.241 410.869 646.895 410.869 646.549 410.847C646.337 410.849 646.128 410.809 645.932 410.729C645.736 410.649 645.558 410.53 645.409 410.38C645.259 410.231 645.141 410.053 645.061 409.857C644.98 409.661 644.94 409.451 644.942 409.239C644.843 408.642 644.791 408.038 644.786 407.432C644.795 406.98 644.829 406.529 644.885 406.08C645.546 402.242 646.41 398.442 647.473 394.696C648.355 391.537 649.303 388.378 650.317 385.219C650.657 384.148 650.918 383.054 651.099 381.946C651.099 381.789 651.099 381.59 651.099 381.434C651.11 381.229 651.073 381.025 650.992 380.838C650.91 380.65 650.787 380.484 650.63 380.352C650.63 380.238 650.488 380.139 650.488 379.982C650.497 379.902 650.532 379.827 650.588 379.769C650.652 379.699 650.732 379.644 650.821 379.61C650.909 379.575 651.005 379.562 651.099 379.57C651.412 379.57 651.782 379.669 652.138 379.769C653.564 380.318 654.894 381.091 656.077 382.06C656.426 382.311 656.708 382.646 656.897 383.033C657.085 383.421 657.175 383.849 657.157 384.28V384.493C656.976 386.095 656.629 387.674 656.119 389.203C655.664 390.754 655.195 392.263 654.783 393.814C654.783 393.814 654.783 393.913 654.783 394.07C655.209 393.173 655.622 392.405 656.048 391.622Z" fill="white"/>
<path d="M692.537 400.018C692.224 400.374 691.912 400.687 691.556 401.057L691.4 401.213C690.731 401.925 690.106 402.636 689.437 403.277C687.581 405.194 685.406 406.773 683.01 407.944C681.736 408.568 680.346 408.917 678.928 408.969C678.583 408.997 678.236 408.997 677.89 408.969C676.994 408.957 676.103 408.818 675.245 408.556C673.866 408.012 672.754 406.95 672.145 405.596C671.666 404.459 671.368 403.254 671.264 402.025C671.264 401.413 671.164 400.786 671.164 400.217C671.162 398.282 671.474 396.36 672.088 394.525C672.728 392.682 673.562 390.912 674.577 389.246C675.551 387.551 676.731 385.984 678.089 384.578C679.673 382.811 681.665 381.458 683.891 380.637C684.645 380.394 685.432 380.274 686.223 380.281C687.461 380.284 688.675 380.624 689.736 381.263C690.58 381.673 691.353 382.216 692.025 382.871C692.797 383.619 693.242 384.642 693.263 385.717C693.26 386.102 693.208 386.484 693.106 386.855C692.853 387.989 692.32 389.04 691.556 389.915C689.71 392.113 687.365 393.835 684.716 394.938C682.906 395.7 680.877 395.756 679.028 395.094C678.848 395.013 678.656 394.96 678.459 394.938C678.405 394.931 678.35 394.943 678.304 394.972C678.257 395 678.222 395.043 678.203 395.094C678.103 395.257 678.017 395.429 677.947 395.607C677.162 397.457 676.654 399.414 676.44 401.413C676.419 401.792 676.419 402.172 676.44 402.551C676.435 403.958 676.772 405.345 677.421 406.592C677.683 407.088 678.077 407.502 678.559 407.788C678.725 407.841 678.897 407.875 679.071 407.887C679.207 407.912 679.347 407.912 679.483 407.887C680.675 407.462 681.793 406.852 682.796 406.08C684.09 405.098 685.342 404.059 686.522 402.978C689.267 400.431 691.968 397.841 694.599 395.208L697.031 392.775L697.5 391.992C698.309 390.619 699.263 389.335 700.344 388.164C701.663 386.72 703.313 385.616 705.151 384.948C705.942 384.673 706.785 384.576 707.618 384.665C708.452 384.754 709.255 385.025 709.971 385.461C710.64 385.82 711.265 386.254 711.834 386.756C712.148 387.057 712.397 387.42 712.565 387.821C712.734 388.223 712.819 388.654 712.816 389.089C712.803 389.404 712.77 389.718 712.716 390.029C712.483 390.961 712.041 391.827 711.422 392.562C709.934 394.387 708.012 395.81 705.833 396.702C705.03 397.05 704.163 397.229 703.288 397.229C702.531 397.212 701.782 397.073 701.07 396.816C700.917 396.764 700.76 396.726 700.6 396.702C700.56 396.704 700.521 396.714 700.486 396.734C700.452 396.754 700.422 396.782 700.401 396.816C700.311 396.958 700.239 397.111 700.188 397.272C699.521 398.783 699.103 400.393 698.951 402.039C698.922 402.351 698.922 402.665 698.951 402.978C698.935 404.131 699.219 405.269 699.775 406.279C699.99 406.692 700.315 407.036 700.714 407.275C700.846 407.329 700.985 407.363 701.126 407.375C701.244 407.398 701.365 407.398 701.482 407.375C702.477 407.042 703.406 406.536 704.226 405.881C705.293 405.09 706.313 404.239 707.284 403.334C709.559 401.27 711.792 399.15 713.911 396.916C714.892 395.934 715.93 394.952 716.911 393.97C717.224 393.7 717.537 393.401 717.793 393.131C718.049 392.86 718.418 392.562 718.717 392.263L718.817 392.163H719.073C719.022 392.476 718.9 392.773 718.717 393.031C718.037 394.248 717.242 395.396 716.342 396.461C715.048 398.012 713.64 399.52 712.247 400.957C711.991 401.27 711.678 401.583 711.422 401.84L711.308 401.953C710.796 402.523 710.284 403.134 709.716 403.704C708.166 405.256 706.381 406.553 704.426 407.546C703.375 408.047 702.233 408.328 701.07 408.371C700.04 408.483 698.998 408.376 698.012 408.058C697.411 407.836 696.867 407.482 696.422 407.021C695.976 406.561 695.64 406.006 695.438 405.397C695.026 404.5 694.781 403.536 694.713 402.551C694.649 402.055 694.611 401.557 694.599 401.057C694.595 399.78 694.753 398.508 695.069 397.272C694.244 398.197 693.419 399.079 692.537 400.018ZM689.85 383.383C689.772 383.322 689.678 383.288 689.579 383.284C689.443 383.259 689.303 383.259 689.167 383.284C688.439 383.491 687.744 383.802 687.105 384.208C683.605 386.478 680.781 389.648 678.928 393.387C678.875 393.464 678.836 393.551 678.815 393.643C678.815 393.643 678.815 393.743 679.028 393.743H679.184C679.873 393.747 680.558 393.627 681.204 393.387C684.412 392.392 687.14 390.249 688.868 387.368C689.546 386.396 689.904 385.237 689.892 384.052V383.853C689.901 383.695 689.887 383.537 689.85 383.383V383.383ZM709.971 387.111C709.947 387.082 709.917 387.057 709.883 387.04C709.848 387.023 709.811 387.013 709.772 387.012C709.667 387.04 709.562 387.073 709.46 387.111C708.858 387.268 708.283 387.512 707.753 387.837C704.858 389.693 702.53 392.313 701.027 395.408C701.027 395.507 700.927 395.564 700.927 395.607C700.927 395.649 701.027 395.721 701.226 395.721C701.794 395.713 702.357 395.607 702.89 395.408C705.521 394.586 707.765 392.836 709.204 390.484C709.755 389.675 710.043 388.716 710.028 387.738V387.581C710.043 387.422 710.024 387.262 709.971 387.111V387.111Z" fill="white"/>
<path d="M51.6917 214.774C44.1687 215.224 36.8285 217.276 30.162 220.794C27.318 222.217 26.351 223.825 26.7491 227.14C29.9061 253.779 32.8355 280.46 35.8928 307.113C37.642 322.297 39.5333 337.438 41.3535 352.65L42.548 352.522C41.6 325.2 40.6851 297.873 39.8035 270.542L41.1117 270.414L44.2687 288.742H45.5201C46.9279 276.874 51.322 225.717 51.6917 214.774Z" fill="#004F79"/>
<path d="M65.2716 168.185C51.6342 163.304 37.5845 165.339 23.293 164.813C27.7013 163.56 32.0528 162.166 36.5037 161.084C53.7246 156.929 70.9455 155.691 88.0953 161.454L89.2898 161.81C101.861 166.079 103.34 168.029 102.885 180.238C102.657 186.357 102.173 192.462 101.818 198.054C88.3655 195.322 75.6098 191.352 62.6124 190.484C49.6149 189.616 36.39 191.907 23.0513 192.732C32.2803 184.607 44.7374 184.194 56.327 180.95H23.8476C35.9065 170.96 51.165 171.629 65.2716 168.185Z" fill="#004F79"/>
<path d="M6.14309 177.79C4.05269 169.964 1.80587 162.137 0.0283203 154.282C0.0452083 153.452 0.293856 152.643 0.746175 151.946C1.19849 151.25 1.83646 150.693 2.58799 150.341C23.108 141.276 64.6884 138.345 88.6356 149.857C89.0406 150.01 89.401 150.262 89.6841 150.59C89.9672 150.918 90.164 151.312 90.2567 151.735C85.6635 150.768 81.1414 149.601 76.4629 148.889C54.4355 145.346 33.0481 146.043 12.784 154.112C8.63166 155.777 6.59814 157.726 7.18118 161.355C7.99174 166.734 8.07706 172.155 8.47523 177.577L6.14309 177.79Z" fill="#004F79"/>
<path d="M63.0246 200.416C43.2725 197.741 21.7002 201.313 9.37109 212.085C15.9694 219.2 17.235 219.2 25.4117 214.661C30.2608 211.971 60.5218 200.786 63.0246 200.416Z" fill="#004F79"/>
<path d="M49.1458 294.548L45.7329 274.783L44.3109 274.911C45.2589 304.395 46.2448 333.885 47.2687 363.379L45.9747 363.507C44.0122 347.143 41.9645 330.778 40.0874 314.428C36.8309 285.697 33.6456 256.867 30.2327 228.108C29.8061 224.536 30.901 222.8 33.9158 221.278C49.1031 213.565 64.5038 212.355 80.2884 219.285C89.361 223.27 89.5744 223.554 88.2519 233.288C84.0331 264.67 79.767 296.047 75.4535 327.42C72.837 347.038 70.2252 366.652 67.6181 386.261C67.2199 389.178 67.0066 392.906 62.9254 391.853C61.5033 391.469 60.0813 387.855 60.0813 385.663C59.0005 348.167 58.1189 310.671 57.1519 273.175C57.1245 267.475 56.4373 261.797 55.1041 256.255C53.5968 269.015 52.0847 281.784 50.5678 294.562L49.1458 294.548Z" fill="#73CDDB"/>
<path d="M72.069 169.011C58.4317 163.731 44.3819 165.923 30.0904 165.353C34.4988 164.016 38.8502 162.507 43.3012 161.341C60.5221 156.844 77.743 155.52 94.8927 161.725L96.0872 162.123C108.658 166.734 110.137 168.826 109.682 182.045C109.454 188.648 108.957 195.237 108.601 201.27C95.1487 198.324 82.4072 194.055 69.4098 193.116C56.4124 192.177 43.1732 194.539 29.8345 195.535C39.0635 186.755 51.5206 186.286 63.1244 182.814H30.6735C42.7324 172.027 58.0051 172.739 72.069 169.011Z" fill="#73CDDB"/>
<path d="M11.0917 198.054C8.73115 185.745 6.1857 173.465 4.18063 161.056C4.13831 159.876 4.37363 158.702 4.86763 157.629C5.36162 156.556 6.10049 155.615 7.0247 154.88C30.2466 140.65 77.2876 136.025 104.392 154.112C104.897 154.435 105.324 154.868 105.641 155.377C105.958 155.887 106.158 156.461 106.226 157.057C101.036 155.535 95.9021 153.727 90.5837 152.546C65.6553 146.982 41.4665 148.007 18.5432 160.743C13.8363 163.361 11.5468 166.435 12.2009 172.127C13.1252 180.58 13.2106 189.103 13.623 197.613L11.0917 198.054Z" fill="#73CDDB"/>
<path d="M13.4668 214.12C34.2143 194.411 85.2086 195.037 104.676 214.219C97.5662 220.68 97.1396 220.566 89.5032 215.799C69.5947 203.333 49.5297 203.49 29.6212 215.799C21.7146 220.637 20.449 220.694 13.4668 214.12Z" fill="#73CDDB"/>
<path d="M83.3169 112.802C83.3169 111.92 83.3169 111.009 83.3169 110.112C83.2432 109.766 83.2711 109.406 83.3972 109.075C83.5234 108.744 83.7424 108.457 84.0279 108.248C84.4037 108.01 84.6942 107.658 84.8578 107.244C85.0213 106.829 85.0494 106.374 84.938 105.943C84.7851 104.997 84.9769 104.027 85.4784 103.211C85.836 102.67 86.0442 102.044 86.0817 101.397C86.1191 100.749 85.9846 100.104 85.6917 99.5251C85.4227 99.0669 85.3435 98.5216 85.4711 98.0057C85.5986 97.4898 85.9228 97.0443 86.3743 96.7645C87.327 96.053 88.3082 95.3415 89.2184 94.7011C89.9152 94.2031 90.7968 93.8615 90.7826 92.7801C90.7684 91.6986 91.0101 90.5175 89.8298 89.6637C88.9368 88.9102 88.1003 88.0922 87.3271 87.2161C85.1798 85.167 84.2981 82.4063 83.26 79.7453C83.1898 79.3022 83.1898 78.8508 83.26 78.4077C83.26 76.1593 83.1463 73.911 83.26 71.6911C83.1939 69.2963 82.7623 66.9257 81.9802 64.6614C81.9802 64.5191 81.6105 64.3768 81.6247 64.2772C82.0371 61.915 80.0462 60.179 79.9609 57.9448C79.9609 57.8168 79.6054 57.5749 79.4347 57.5749C79.2641 57.5749 78.9228 57.8737 78.937 58.0018C78.914 59.7451 79.0377 61.4874 79.3068 63.21C79.8465 64.9117 79.7761 66.7486 79.1077 68.404C79.0256 68.5466 78.9634 68.6998 78.9228 68.8593C78.3534 73.5197 76.9058 78.0297 74.6567 82.1502C72.7146 85.7118 70.4182 89.0681 67.8025 92.1682C65.0579 95.4553 62.1143 98.5717 59.2702 101.773C58.3527 102.879 57.5743 104.093 56.9523 105.388C55.5494 107.845 54.451 110.463 53.6816 113.186C53.625 113.355 53.53 113.508 53.4042 113.634C53.2783 113.76 53.1251 113.855 52.9564 113.912C52.7715 113.912 52.416 113.599 52.2169 113.328C50.7456 110.955 49.131 108.674 47.382 106.498C46.3258 105.381 45.1421 104.392 43.8553 103.552C42.0351 102.357 40.5278 100.706 38.3236 100.009C37.038 99.3657 35.8387 98.5624 34.7543 97.6183C32.0206 95.96 29.4827 93.998 27.189 91.7697C26.5633 91.1578 25.5679 90.7309 25.0275 89.991C22.6954 86.8034 19.7091 84.1282 17.7609 80.6134C15.8534 76.8363 14.2693 72.9042 13.0255 68.8593C13.0255 68.7028 12.8122 68.532 12.8407 68.404C13.2246 66.4402 12.3145 64.633 12.3145 62.7119C12.14 60.8186 12.14 58.9132 12.3145 57.0199C13.1677 52.4947 14.0778 48.0123 16.7939 44.0848C17.983 42.1154 19.3288 40.2452 20.8183 38.4923C22.8194 36.5805 24.9951 34.8607 27.317 33.3553C31.4125 30.3812 35.8492 28.1186 40.1154 25.3722C44.9107 22.1744 49.295 18.3988 53.1697 14.1305C54.4669 12.4802 55.525 10.655 56.3124 8.70881C56.7273 7.71885 57.0881 6.70702 57.3931 5.67781C57.8381 4.05251 58.1942 2.40411 58.4597 0.739976C58.5253 0.497969 58.606 0.260331 58.7014 0.0284729C59.0156 0.098142 59.3209 0.203166 59.6115 0.341536C61.0336 1.18111 61.2184 2.80333 61.5882 4.08404C62.0612 5.60481 62.4364 7.15431 62.7116 8.72305C62.9391 10.3325 62.9391 11.966 62.7116 13.5755C62.425 16.0743 61.8574 18.5327 61.0193 20.904C60.3368 22.6827 59.1422 24.248 58.8578 26.1976C58.6872 27.3929 57.0376 27.9052 57.3505 29.3424C55.9284 30.7654 56.5115 33.1134 55.2601 34.6645C55.3738 36.9128 54.7197 39.2181 55.9427 41.3526C56.5541 42.4341 56.8528 43.6436 57.5496 44.7393C57.8222 45.1963 58.1846 45.5933 58.6147 45.9063C59.0449 46.2194 59.5339 46.442 60.0524 46.5608C61.0232 46.775 62.0332 46.7309 62.9817 46.4327C65.7263 45.7924 67.0914 43.7859 68.6699 41.8506C70.803 39.2892 71.7984 36.0448 74.0168 33.5545C74.8984 32.5299 75.5241 31.2919 76.3773 30.2247C77.9131 28.3036 80.2026 27.4925 82.3357 26.4679C82.5774 26.3399 83.0894 26.6814 83.4022 26.8948C83.9426 27.2221 83.4022 27.3929 83.2458 27.649C82.3715 29.7474 81.7832 31.9538 81.4967 34.2091C81.4866 36.4312 82.0394 38.6196 83.1036 40.5699C83.6724 41.7795 84.3692 42.9464 84.9238 44.1275C85.8223 45.7632 86.8645 47.3157 88.0381 48.7665C88.8823 50.3014 89.8326 51.7754 90.8821 53.1778C93.9395 56.3653 96.0726 60.179 98.618 63.7223C99.537 64.8124 100.268 66.0484 100.78 67.3794C101.149 68.7028 102.202 69.6135 102.6 70.9654C102.998 72.3172 103.695 73.911 104.349 75.334C105.181 77.1232 105.664 79.0553 105.771 81.026C105.871 82.1269 106.042 83.2202 106.283 84.2989C106.439 85.3235 105.899 86.4619 106.653 87.3726C105.629 89.4502 106.567 91.727 105.97 93.9327C105.472 95.7826 105.188 97.7037 104.676 99.6247C104.557 100.367 104.367 101.096 104.107 101.802C102.429 104.989 101.263 108.419 98.8598 111.222C98.17 111.856 97.5675 112.578 97.068 113.371C96.5207 114.309 95.7485 115.097 94.8212 115.662C92.1904 117.398 90.2991 120.173 87.1706 121.212C84.3265 124.058 80.5581 125.282 77.4297 127.615C75.3694 128.86 73.232 129.972 71.0305 130.945C68.5561 132.368 66.1956 133.962 63.7639 135.485C63.3373 135.755 62.7258 136.353 62.5267 136.224C61.919 135.906 61.4229 135.41 61.1047 134.801C60.7685 133.929 60.5856 133.004 60.5643 132.069C60.3657 130.741 60.0565 129.432 59.64 128.156C59.2836 126.603 59.2603 124.992 59.5716 123.43C59.8829 121.867 60.5217 120.389 61.4459 119.091C61.931 118.371 62.6026 117.795 63.3891 117.427C64.1756 117.058 65.0473 116.911 65.9111 117C68.1745 117.231 70.406 117.708 72.5663 118.423C73.8326 118.992 75.2205 119.236 76.6049 119.134C77.6799 119.07 78.7578 119.07 79.8329 119.134C80.668 119.173 81.4844 118.878 82.1029 118.316C82.7214 117.753 83.0915 116.967 83.132 116.132V115.961C83.3596 114.78 83.3169 113.798 83.3169 112.802Z" fill="url(#paint0_linear_53_270)"/>
<path d="M46.7851 121.354C46.7851 121.582 46.7851 122.478 46.3869 122.635C45.4484 123.076 45.7186 121.909 45.3488 121.525C44.5667 120.742 43.9268 119.789 43.23 118.935C41.5349 117.119 39.4883 115.666 37.2148 114.666C35.0248 113.528 32.4936 112.617 30.2894 111.322C28.0867 110.201 26.06 108.762 24.2742 107.053C22.9375 105.63 21.5297 104.207 20.1077 102.869C18.2796 101.085 16.9214 98.8748 16.1544 96.4372C15.614 94.8577 14.3057 93.5912 14.3626 91.784C14.3626 91.599 13.8791 91.3713 13.9076 91.2005C13.9525 90.0748 13.7687 88.9517 13.3672 87.8992C13.3672 87.7142 13.5236 87.4438 13.6232 87.2303C13.8933 87.3584 14.2489 87.4438 14.4053 87.6715C16.3578 90.4097 18.6624 92.8785 21.2595 95.0142C23.9939 97.2116 26.8419 99.2636 29.7917 101.162C31.7968 102.585 33.9583 103.666 35.9918 104.975C39.6289 107.355 42.6817 110.527 44.9222 114.253C45.6421 115.846 46.2088 117.505 46.6144 119.205C46.7375 119.915 46.7947 120.634 46.7851 121.354V121.354Z" fill="url(#paint1_linear_53_270)"/>
<defs>
<linearGradient id="paint0_linear_53_270" x1="59.4978" y1="136.139" x2="59.4978" y2="-0.0142139" gradientUnits="userSpaceOnUse">
<stop stop-color="#F26428"/>
<stop offset="1" stop-color="#F1EB4D"/>
</linearGradient>
<linearGradient id="paint1_linear_53_270" x1="30.0619" y1="122.734" x2="30.0619" y2="87.1592" gradientUnits="userSpaceOnUse">
<stop stop-color="#F26428"/>
<stop offset="1" stop-color="#F1EB4D"/>
</linearGradient>
</defs>
</svg>
