<svg width="992" height="548" fill="none" xmlns="http://www.w3.org/2000/svg"><path d="M155.357 263.769v17.076l-29.535-30.581v46.02h-11.377v-74.949l40.912 42.434Zm3.584-42.434h11.376v74.949l-11.376-11.768v-63.181ZM244.448 285.341a38.7 38.7 0 0 1-11.945 8.026 37.468 37.468 0 0 1-29.123 0 37.65 37.65 0 0 1-19.909-19.922 36.322 36.322 0 0 1-3.014-14.586 36.692 36.692 0 0 1 2.957-14.628 37.499 37.499 0 0 1 19.909-19.922 36.941 36.941 0 0 1 21.815-2.36 36.97 36.97 0 0 1 19.31 10.428l-9.087 9.093a25.58 25.58 0 0 0-7.821-5.322 23.573 23.573 0 0 0-9.556-1.935 23.9 23.9 0 0 0-9.599 1.935 25.132 25.132 0 0 0-7.821 5.279 24.622 24.622 0 0 0-5.261 7.813 24.039 24.039 0 0 0-1.949 9.619 23.716 23.716 0 0 0 1.949 9.563 24.713 24.713 0 0 0 13.082 13.035c3.032 1.3 6.3 1.959 9.599 1.935 3.285.028 6.54-.631 9.556-1.935a26.059 26.059 0 0 0 7.821-5.223l9.087 9.107Zm-20.619-26.482a5.945 5.945 0 0 1-5.93 5.934 5.876 5.876 0 0 1-2.313-.437 5.868 5.868 0 0 1-1.953-1.313 5.61 5.61 0 0 1-1.341-1.901 5.613 5.613 0 0 1-.451-2.283 5.7 5.7 0 0 1 1.792-4.269 5.886 5.886 0 0 1 1.957-1.301 5.89 5.89 0 0 1 2.309-.435 5.694 5.694 0 0 1 4.195 1.736 5.877 5.877 0 0 1 1.735 4.269ZM292.186 221.335l37.4 74.949h-74.899l37.499-74.949Zm0 25.614-18.899 37.937h37.812l-18.913-37.937ZM380.964 263.769v17.076l-29.607-30.581v46.02h-11.376v-74.949l40.983 42.434Zm3.569-42.434h11.377v74.949l-11.377-11.768v-63.181ZM435.556 221.335a25.57 25.57 0 0 1 10.993 2.504 26.687 26.687 0 0 1 9.499 7.656 41.198 41.198 0 0 1 6.698 12.992 60.02 60.02 0 0 1 2.545 18.499 47.229 47.229 0 0 1-2.602 17.176 25.214 25.214 0 0 1-6.798 10.131 22.07 22.07 0 0 1-9.499 4.81 48.303 48.303 0 0 1-10.836 1.224h-29.535v-74.992h29.535Zm12.372 59.097a10.79 10.79 0 0 0 2.545-3.429 21.562 21.562 0 0 0 1.593-4.497 34.94 34.94 0 0 0 .768-4.91c.128-1.664.199-3.287.199-4.852a42.9 42.9 0 0 0-2.09-14.885 30.656 30.656 0 0 0-4.352-8.225 13.633 13.633 0 0 0-11.035-5.692h-17.263v49.606h17.263c5.859.038 9.983-1.001 12.372-3.116ZM531.616 233.999h-43.543v27.82h29.024l-2.461 12.679h-26.563v9.107h43.543v12.679h-56.1v-74.949h56.1v12.664ZM595.692 257.322a18.066 18.066 0 0 1 6.285 6.034 14.752 14.752 0 0 1 2.204 7.869 21.352 21.352 0 0 1-1.848 8.282 24.718 24.718 0 0 1-5.688 8.14 30.598 30.598 0 0 1-9.713 6.175 40.736 40.736 0 0 1-26.791.413 31.937 31.937 0 0 1-9.4-5.308 23.924 23.924 0 0 1-5.93-7.214 25.767 25.767 0 0 1-2.702-7.77l12.358-2.348c.156 1.085.448 2.147.867 3.159a11.373 11.373 0 0 0 2.845 4.098 17.604 17.604 0 0 0 5.688 3.53 24.46 24.46 0 0 0 9.2 1.423 23.948 23.948 0 0 0 9.457-1.58 17.806 17.806 0 0 0 5.688-3.686 11.393 11.393 0 0 0 2.759-4.269c.387-.998.626-2.048.711-3.116 0-1.494-1.508-2.917-4.494-4.269-2.986-1.352-7.707-1.992-14.107-1.992a61.347 61.347 0 0 1-12.357-1.067 36.412 36.412 0 0 1-8.532-2.847 20.305 20.305 0 0 1-5.518-3.842 15.936 15.936 0 0 1-3.057-4.183 14.343 14.343 0 0 1-1.337-3.885 18.8 18.8 0 0 1-.313-2.917 21.602 21.602 0 0 1 1.849-8.282 24.087 24.087 0 0 1 5.688-8.083 31.284 31.284 0 0 1 9.698-6.133 40.855 40.855 0 0 1 26.877-.341 31.83 31.83 0 0 1 9.4 5.364 24.35 24.35 0 0 1 5.929 7.115 25.312 25.312 0 0 1 2.717 7.727l-12.372 2.462a13.386 13.386 0 0 0-.868-3.173 11.163 11.163 0 0 0-2.844-4.042 18.484 18.484 0 0 0-5.688-3.472 24.168 24.168 0 0 0-9.2-1.494 23.826 23.826 0 0 0-9.343 1.58 17.764 17.764 0 0 0-5.688 3.671 12.093 12.093 0 0 0-2.844 4.112 9.617 9.617 0 0 0-.768 2.946 3.23 3.23 0 0 0 .981 2.035 8.294 8.294 0 0 0 3.157 2.035 26.62 26.62 0 0 0 5.773 1.522 52.11 52.11 0 0 0 8.689.612c9.66.133 17.188 1.803 22.582 5.009ZM678.355 285.341a38.94 38.94 0 0 1-11.959 8.026 37.47 37.47 0 0 1-29.124 0 37.68 37.68 0 0 1-19.908-19.922 36.094 36.094 0 0 1-2.972-14.572 36.453 36.453 0 0 1 2.972-14.628 37.527 37.527 0 0 1 19.908-19.922 36.335 36.335 0 0 1 14.619-2.96 36.567 36.567 0 0 1 26.464 11.043l-9.101 9.093a25.527 25.527 0 0 0-7.807-5.323 23.677 23.677 0 0 0-9.556-1.935 23.987 23.987 0 0 0-9.613 1.935 24.812 24.812 0 0 0-13.083 13.092 24.033 24.033 0 0 0-1.934 9.62 23.718 23.718 0 0 0 1.934 9.562 25.13 25.13 0 0 0 5.276 7.77 24.836 24.836 0 0 0 7.807 5.265 23.97 23.97 0 0 0 9.613 1.935 23.643 23.643 0 0 0 9.556-1.935 25.998 25.998 0 0 0 7.807-5.222l9.101 9.078Zm-20.648-26.482a5.954 5.954 0 0 1-1.736 4.187 5.937 5.937 0 0 1-4.18 1.747 5.878 5.878 0 0 1-4.266-1.75 5.58 5.58 0 0 1-1.777-4.184 5.693 5.693 0 0 1 1.777-4.269 5.936 5.936 0 0 1 4.266-1.736 5.685 5.685 0 0 1 4.181 1.736 5.818 5.818 0 0 1 1.735 4.269ZM744.878 233.999h-43.529v27.82h29.024l-2.432 12.679h-26.592v9.107h43.529v12.679h-56.1v-74.949h56.1v12.664ZM795.972 263.769v17.076l-29.536-30.581v46.02H755.06v-74.949l40.912 42.434Zm3.569-42.434h11.377v74.949l-11.377-11.768v-63.181ZM885.076 285.341a38.588 38.588 0 0 1-11.959 8.026 37.47 37.47 0 0 1-29.123 0 37.684 37.684 0 0 1-19.909-19.922 36.084 36.084 0 0 1-2.958-14.572 36.464 36.464 0 0 1 2.958-14.628 37.526 37.526 0 0 1 19.909-19.922 37.772 37.772 0 0 1 29.18 0 36.963 36.963 0 0 1 11.902 8.139l-9.086 9.093a25.77 25.77 0 0 0-7.822-5.322 24.668 24.668 0 0 0-19.154 0 24.683 24.683 0 0 0-13.083 13.092 23.776 23.776 0 0 0-1.948 9.62 23.464 23.464 0 0 0 1.948 9.562 25.108 25.108 0 0 0 5.261 7.77 24.739 24.739 0 0 0 7.822 5.265 24.67 24.67 0 0 0 19.154 0 26.274 26.274 0 0 0 7.822-5.222l9.086 9.021Zm-20.619-26.482a5.973 5.973 0 0 1-5.93 5.934 5.878 5.878 0 0 1-4.266-1.75 5.688 5.688 0 0 1-1.778-4.184 5.809 5.809 0 0 1 1.778-4.269 5.926 5.926 0 0 1 4.266-1.736 5.68 5.68 0 0 1 4.181 1.736 5.84 5.84 0 0 1 1.749 4.269ZM951.6 233.999h-43.529v27.82h29.024l-2.46 12.679h-26.564v9.107H951.6v12.679h-56.1v-74.949h56.1v12.664ZM890.552 323.122c-.114 1.148-1.384 3.145-3.811 5.991a30.267 30.267 0 0 1-5.134 5.109 37.271 37.271 0 0 0-6.228 6.588c-.441.598-1.152 1.423-2.133 2.675a5.37 5.37 0 0 0-.982 1.267 18.687 18.687 0 0 0-2.687 3.429h.199l.085.2c.08-.142.187-.268.313-.37a.184.184 0 0 1 .213.113l.185-.227h.341a.885.885 0 0 1 .512-.47l.143.128.241-.299v.072a21.135 21.135 0 0 0 2.844-3.031c1.972-2.353 2.996-3.577 3.072-3.672v-.142c2.057-2.448 5.238-6.029 9.542-10.744.284.143.455.712.498 1.665a20.67 20.67 0 0 0-4.053 4.269c-2.475 3.117-3.897 4.838-4.266 5.151h-.143l-1.507 2.135c-.361.496-.75.971-1.166 1.423.16.031.324.031.483 0a3.87 3.87 0 0 1 2.56-1.21.216.216 0 0 0 .142 0 .377.377 0 0 0 0-.284 1.948 1.948 0 0 1 1.266-.328c.882-.398 2.062-1.024 3.527-1.849a7.105 7.105 0 0 0 2.261-.84c.355 0 .711.228 1.038.797.038.924.389 1.807.995 2.504v.086c.15.361.232.747.242 1.138a1.421 1.421 0 0 1-.924 1.124 7.446 7.446 0 0 0-1.138.626l-.341.342c-.171.114-.285.128-.342 0a113.698 113.698 0 0 0-11.575 5.18 44.95 44.95 0 0 0-10.196 6.702c0 .37-.384.584-1.237.669a.243.243 0 0 1-.228-.114c-.696.242-1.422-.185-2.119-1.309a3.978 3.978 0 0 1-.924-2.519 30.483 30.483 0 0 1 3.456-6.076 52.938 52.938 0 0 1 4.351-6.162v-.128c0-.099 0-.213.228-.37h.213v-.071a4.52 4.52 0 0 1 .882-1.281 7.94 7.94 0 0 1 1.137-1.252.201.201 0 0 1-.071-.128c.299-.171.398-.284.299-.37a53.778 53.778 0 0 1 2.616-2.732c.163-.303.398-.562.683-.754h-.071l.498-.598c.174-.231.38-.437.611-.612l-.071-.128c.242-.256.626-.612 1.123-1.081a42.741 42.741 0 0 1 4.138-4.796 40.19 40.19 0 0 0 4.38-5.165l.256-.157a.397.397 0 0 0-.284 0 16.265 16.265 0 0 0-2.972.882 9.605 9.605 0 0 0-2.688 1.295 7.692 7.692 0 0 0-2.46 1.608 17.65 17.65 0 0 1-2.361 1.879 20.319 20.319 0 0 1-2.488 2.575v.143a1.44 1.44 0 0 1-.37.441c-.213.213-.256.355-.17.441l-.37.299v.142l-.427.441c-.227 0-.327.228-.298.584l-.256.099a5.699 5.699 0 0 0-1.309 2.049 1.812 1.812 0 0 0-.64.47h-.341c-.725.114-1.493-.299-2.289-1.224a3.532 3.532 0 0 1-1.095-2.504 7.028 7.028 0 0 0 .597-1.637c0-2.021 1.337-4.596 4.053-7.755.256-.071.412-.2.44-.384.384-.271.939-.684 1.664-1.267l.142.071.811-.839.228.185c.135-.219.298-.42.483-.598a.148.148 0 0 0 .071.019c.025 0 .05-.007.071-.019a.471.471 0 0 0 .299-.185c.099-.128.199-.157.299-.071a.189.189 0 0 1-.03-.1c0-.035.011-.07.03-.099 0 0 .142-.086.412-.114.27-.029.227-.128.299-.37.216-.11.425-.233.625-.37.199-.155.434-.258.683-.299a.699.699 0 0 1 .583-.413 1.004 1.004 0 0 0 .711-.412c0 .099 0 .128.156.128.107-.084.198-.185.27-.299.143-.199.256-.299.356-.313a.21.21 0 0 1 .156.185l.498-.527.285.114v-.213l.597-.2h-.199a2.615 2.615 0 0 0 1.038-.583.191.191 0 0 0 .142 0c-.1 0 0-.071.313-.242a.243.243 0 0 1 .156.085.2.2 0 0 0 .214.086l.17-.356v-.071a.76.76 0 0 0 .214.114.643.643 0 0 0 .341-.128.65.65 0 0 1 .256-.128v-.214c.48-.055.955-.146 1.422-.27v-.199a.797.797 0 0 0 .327-.171.615.615 0 0 1 .327-.171h.142l-.313.299.356.171c-.1 0-.128-.1-.085-.2l.255-.156c.086-.1 0-.185-.085-.27.099.159.162.339.185.526h-.071l.156.128h-.213c-.206.236-.44.446-.697.626h-.412a.143.143 0 0 1 .128-.085l-.114.284a.87.87 0 0 1 .441.299c0-.085-.1-.128-.142-.114-.043.015-.128 0-.256.228s-.214.157-.27 0l-.37.456a.216.216 0 0 0-.142 0c-.1 0-.143.113-.143.298s-.128.228-.369.171a9.373 9.373 0 0 0 1.507-.085l.284.114c0-.328.768-.555 2.276-.712 1.507-.156 2.218 0 2.574.441l.284.114c.241.709.607 1.37 1.081 1.95.064.324.2.631.398.896.274.439.476.92.597 1.423.109.49.142.994.1 1.494Zm-11.092-4.696a.93.93 0 0 0-.086.626l.086-.626ZM931.521 324.972l-1.849 14.942c0 .156-.426 1.152-1.209 3.016-.184 0-.312.171-.369.442h-.214s-.085.227-.128.697c0 .227-.184.441-.554.64-.356.185-.498.441-.412.754a3.334 3.334 0 0 1-1.067.997v.142a1.428 1.428 0 0 1-.299.199c-.142.085-.17.213 0 .384a4.622 4.622 0 0 1-.824.698 4.223 4.223 0 0 0-.683.825 1.425 1.425 0 0 1-.839.555c-.085.1-.18.191-.284.27-.143.128-.185.242-.143.327h-.128c-3.413 2.718-8.319 4.867-14.76 6.447l-.214-.114-.469.114a8.38 8.38 0 0 1-3.029 0l-2.844-.555a.948.948 0 0 0-.569-.285 2.597 2.597 0 0 1-.697-.071 9.788 9.788 0 0 1-3.74-2.448c-2.844-2.969-4.356-5.573-4.536-7.812v-7.001l.498-1.224a.369.369 0 0 1-.086-.199.742.742 0 0 1 .171-.285c.085-.114.085-.199 0-.27.279-.66.47-1.354.569-2.063.365-.403.619-.893.739-1.423l.74-.897a.268.268 0 0 1 0-.27c.156-.242.355-.584.583-1.025h.27v-.213l-.256.17.299-.441v.071c.315-.184.553-.478.668-.825l.157.185v-.27l.085-.569c.156.128.27.185.355.17.086-.014.1-.099.143-.313.042-.213.142-.327.27-.341l.298.114a6.69 6.69 0 0 1 .441-1.082h.142l.37-.37-.071-.071s.071.071.341 0c.271-.071.441-.242.768-.669a1.63 1.63 0 0 1 1.095-.683c.081-.363.301-.679.612-.882h.469c.154-.19.27-.407.341-.641l.455-.256v-.142a.198.198 0 0 0 .199 0c.143 0 .356-.171.64-.512.227-.209.394-.474.484-.769.384-.185.75-.404 1.095-.654l.512-.399.156.128c.285-.256 1.252-1.038 2.844-2.333a1.16 1.16 0 0 0 .612-.37c.187-.203.421-.354.682-.442a14.498 14.498 0 0 0 2.162-1.793v-.085h.284c.105-.06.214-.113.327-.156h.214a19.346 19.346 0 0 0 3.142-1.551.785.785 0 0 0 .484.099c.322-.05.62-.199.853-.427l.398-.185h3.328a4.266 4.266 0 0 1 2.744.939h.128c.2-.012.399.038.569.143 0 .185.242.256.54.227.299-.028.441.072.47.299l.128-.085c1.194.982 2.943 2.561 5.261 4.71l-.128.085a5.128 5.128 0 0 1 1.266 4.682Zm-4.266 14.358v-.142a7.246 7.246 0 0 1-2.418 3.33 9.51 9.51 0 0 1-2.844 2.96 171.5 171.5 0 0 0-3.384 2.661l-.086-.128c-.483.227-1.194.626-2.147 1.166h.071s-1.422.484-3.967 1.31c-2.546.825-3.953 1.238-4.096 1.252a16.703 16.703 0 0 1-6.925-.897 14.54 14.54 0 0 1-5.773-3.358l.127.669c.161.504.391.983.683 1.423a6.839 6.839 0 0 0 1.948 2.974c1.422 1.551 3.968 2.149 7.722 1.793 2.844-.285 6.712-1.708 11.604-4.269a22.567 22.567 0 0 0 7.11-6.261c.516-.675.955-1.405 1.308-2.178l-.455.385h-.071a11.596 11.596 0 0 0 1.621-2.69h-.028Zm-.498-8.609a10.97 10.97 0 0 0 0-2.348 13.668 13.668 0 0 0-1.123-3.799 14.776 14.776 0 0 1-1.195-3.8 1.415 1.415 0 0 0-1.223-.441c-.47.073-.947.097-1.422.071-.928.262-1.881.425-2.844.484v.142a53.183 53.183 0 0 0-6.143 2.391c-.996.697-2.446 1.779-4.366 3.244-4.508 4.369-6.996 8.538-7.437 12.466l-.071-.128v.484l.114-.285a5.695 5.695 0 0 0 .298 3.06v.142l-.085-.128a9.125 9.125 0 0 0 2.844 4.397c1.024.185 2.076.37 3.157.598 1.044.204 2.109.28 3.171.227a15.219 15.219 0 0 0 4.636-1.75c1.6-.73 3.124-1.617 4.55-2.647a17.29 17.29 0 0 0 7.168-12.38h-.029Zm2.361-6.204a1.981 1.981 0 0 0-.683-1.281l-1.28-1.138a15.32 15.32 0 0 0 1.522 4.382c0 .328 0 .555.199.669l-.1-.256h.143a5.193 5.193 0 0 0 .227-2.376h-.028ZM961.427 316.221c-.114 1.148-1.384 3.149-3.811 6.005a30.859 30.859 0 0 1-5.134 5.108 36.535 36.535 0 0 0-6.228 6.575c-.441.597-1.152 1.423-2.134 2.689a5.068 5.068 0 0 0-.981 1.252 18.727 18.727 0 0 0-2.687 3.43h.213l.085.199c.071-.144.173-.271.299-.37a.206.206 0 0 1 .124.024.21.21 0 0 1 .089.09l.185-.228h.341a.87.87 0 0 1 .512-.469l.142.128.242-.299v.071a19.3 19.3 0 0 0 2.844-3.031l3.086-3.671v-.128c2.067-2.448 5.247-6.034 9.542-10.758.284.156.455.711.498 1.664a20.424 20.424 0 0 0-4.039 4.269c-2.488 3.131-3.911 4.839-4.266 5.152h-.142l-1.508 2.134c-.357.499-.747.975-1.166 1.423.16.034.324.034.484 0a3.821 3.821 0 0 1 2.559-1.223.233.233 0 0 0 .143 0 .363.363 0 0 0 0-.271c.37-.254.817-.375 1.265-.341.882-.399 2.062-1.011 3.527-1.85a7.096 7.096 0 0 0 2.261-.84c.37 0 .711.228 1.038.797.036.928.387 1.817.995 2.519v.071c.15.362.236.747.256 1.138a1.414 1.414 0 0 1-.924 1.124 7.136 7.136 0 0 0-1.152.627c-.106.121-.22.235-.341.341-.171.114-.284.128-.341 0a113.714 113.714 0 0 0-11.576 5.18 45.502 45.502 0 0 0-10.196 6.702c0 .37-.384.584-1.237.669a.213.213 0 0 1-.227-.114c-.697.242-1.422-.185-2.119-1.309a3.974 3.974 0 0 1-.925-2.519 30.483 30.483 0 0 1 3.456-6.076 52.938 52.938 0 0 1 4.351-6.162v-.128c0-.099.072-.213.228-.37h.213v-.071c.218-.474.516-.908.882-1.28.342-.451.722-.87 1.138-1.253 0 0-.072 0-.072-.128.299-.156.399-.284.299-.37a53.443 53.443 0 0 1 2.617-2.732 2.12 2.12 0 0 1 .682-.754l.498-.598c.179-.232.39-.438.626-.612l-.086-.128c.256-.256.626-.612 1.124-1.067a42.114 42.114 0 0 1 4.138-4.81 40.283 40.283 0 0 0 4.38-5.165l.256-.157a.39.39 0 0 0-.285 0 16.307 16.307 0 0 0-3.057.982 9.605 9.605 0 0 0-2.688 1.295 8.132 8.132 0 0 0-2.46 1.608 17.634 17.634 0 0 1-2.36 1.878 20.314 20.314 0 0 1-2.489 2.59v.128a1.42 1.42 0 0 1-.37.456c-.213.199-.256.341-.17.427l-.37.313.085.128-.441.455c-.227 0-.327.214-.298.569l-.256.1a5.699 5.699 0 0 0-1.309 2.049 1.7 1.7 0 0 0-.639.484h-.342c-.725.114-1.422-.299-2.289-1.224a3.532 3.532 0 0 1-1.095-2.504 7.028 7.028 0 0 0 .597-1.637c0-2.021 1.337-4.596 4.053-7.755.256-.071.412-.185.441-.385.384-.256.938-.683 1.663-1.252h.143l.853-.868.227.185c.136-.218.299-.419.484-.597a.23.23 0 0 0 .142 0c.12-.03.226-.1.299-.2.099-.128.199-.156.298-.071a.184.184 0 0 1 0-.199s.143-.085.413-.114c.27-.028.227-.128.313-.37.211-.11.415-.234.611-.37.199-.155.434-.258.683-.299a.695.695 0 0 1 .583-.412 1.005 1.005 0 0 0 .711-.413c0 .1 0 .142.156.128.157-.014.128-.1.285-.299.156-.199.256-.299.341-.313a.23.23 0 0 1 .156.199l.498-.54.284.113v-.213l.598-.199h-.199a2.437 2.437 0 0 0 1.038-.584.193.193 0 0 0 .142 0c-.1 0 0-.071.313-.242.03.003.06.011.087.026a.21.21 0 0 1 .069.06.203.203 0 0 0 .214.085l.17-.356v-.071l.228.128a.86.86 0 0 0 .327-.142.65.65 0 0 1 .256-.128v-.213c.48-.056.955-.146 1.422-.271v-.199a.797.797 0 0 0 .327-.171.726.726 0 0 1 .327-.171.23.23 0 0 1 .142 0l-.313.299.356.171a.124.124 0 0 1-.089-.071.126.126 0 0 1-.011-.057c0-.02.005-.04.014-.057l.256-.171c.086-.099 0-.185-.085-.27.098.166.16.35.185.541l.156.128h-.213a3.907 3.907 0 0 1-.697.612h-.412s0-.086.128-.086l-.114.285c.172.056.325.16.441.299 0-.086-.1-.114-.142-.114-.043 0-.128.071-.256.228-.128.156-.214.156-.27 0l-.37.441a.216.216 0 0 0-.142 0c-.1 0-.143.113-.143.298s-.128.242-.369.171a7.753 7.753 0 0 0 1.507-.085l.284.114c0-.328.768-.555 2.276-.698 1.507-.142 2.218 0 2.574.427l.284.114a6.26 6.26 0 0 0 1.081 1.95c.064.325.2.631.398.896.279.462.481.967.597 1.494.039.482.005.966-.099 1.438Zm-11.092-4.696a.93.93 0 0 0-.086.626l.086-.626ZM991.986 324.033l-1.166 4.269a44.982 44.982 0 0 1-3.541 4.539 19.156 19.156 0 0 1-4.166 3.842c-.5.409-.975.846-1.422 1.31a5.894 5.894 0 0 0-2.432 1.736c-.976.433-1.894.987-2.73 1.65-.171 0-.456.2-.854.385a2.58 2.58 0 0 1-.924.327c-.862.69-1.82 1.251-2.844 1.665a38.25 38.25 0 0 1-3.513 1.579 32.805 32.805 0 0 0-3.455 1.224 3.78 3.78 0 0 0-.498.498c-.256.285-.441.427-.583.441a.587.587 0 0 1-.213 0c-.939.228-1.422-.085-1.593-.939a10.928 10.928 0 0 0-.526-1.807 3.996 3.996 0 0 1-.256-1.893l.1-.427a.567.567 0 0 1 .398-.241.772.772 0 0 1 .27.071l.284.085a.612.612 0 0 0 .37-.455l3.655-1.181c.275-.114.673-.313 1.194-.598a30.084 30.084 0 0 0 3.897-2.846 56.442 56.442 0 0 0 6.569-5.849 45.55 45.55 0 0 0 5.063-7.3 71.095 71.095 0 0 0-7.466 3.757 3.702 3.702 0 0 0-1.564.768 3.192 3.192 0 0 1-1.507.698 1.69 1.69 0 0 1-.441.455 14.78 14.78 0 0 0-1.764 2.291l.327-.156-.184.284-.157-.185-.114.285a19.722 19.722 0 0 1-1.905-.64l.085-.484c-.27 0-.498-.299-.682-.94a5.325 5.325 0 0 1-.242-1.423 22.614 22.614 0 0 1 2.247-3.031c1.422-1.835 2.417-2.959 2.844-3.372.426-.413.711-1.01 1.265-1.836l.327-.17-.085-.129a345.59 345.59 0 0 1 2.986-3.315c.079-.288.243-.546.47-.74-.464.138-.94.229-1.422.27l.128-.142h-.27v.199c-.256.114-1.607.84-4.039 2.177a11.363 11.363 0 0 1-4.124 1.423c-.128 0-.213-.099-.228-.327a1.63 1.63 0 0 0-.767 0 17.865 17.865 0 0 1-1.181-1.636 2.648 2.648 0 0 1-.455-1.85c.013-.414.11-.821.285-1.196a2.365 2.365 0 0 1-.185-1.223c.057-.37.597-.911 1.621-1.623a9.177 9.177 0 0 1 2.289-1.295c.23-.274.555-.452.91-.498a.975.975 0 0 0 .583-.398l.157.185c0-.37.099-.555.284-.569.185-.014.143 0 .285.171.198-.177.412-.334.64-.47 0 .085.113.114.156.114l.313-.228c.128-.114.227-.114.27 0v-.213l.228.185a.757.757 0 0 1 .64-.342c.099 0 .199-.114.327-.299l.256-.17.085.199a1.1 1.1 0 0 1 .654-.271v.072l.384-.242.114.398a.982.982 0 0 1 .213-.569c.327 0 .469.156.441.299l-.114.156v.128l-.156-.185-.185.285-.128.085h-.142l-.199.712a.233.233 0 0 0-.143 0 1.425 1.425 0 0 0-.896.711l-.085-.199-.384.313v.128a2.297 2.297 0 0 1-.455.939 5.01 5.01 0 0 0-1.337 1.096.2.2 0 0 0 0 .128l.228.114c0-.18.242-.365.725-.555.47-.171.725-.27.768-.27a.204.204 0 0 0 .142 0 .325.325 0 0 0 .313-.313 8.927 8.927 0 0 0 2.531-.797l2.503-1.068c.451-.181.892-.386 1.323-.611a.3.3 0 0 0 .213 0l.299-.1c.117-.053.242-.086.369-.1h.199a11.06 11.06 0 0 0 1.11-.583l.611-.128h.54c.256-.057.5-.153.726-.285a.208.208 0 0 0 .063.051.2.2 0 0 0 .079.02c.166-.056.32-.143.455-.256a.922.922 0 0 0 .355 0c.313-.05.612-.162.882-.327.258-.156.542-.263.839-.313.27 0 .427.228.484.783a1.59 1.59 0 0 1 .512 1.721 1.222 1.222 0 0 1 .54.954c0 .469.142.911.227 1.309-.31.327-.531.729-.639 1.167-.384.313-.982.754-1.792 1.337l.256-.085-.441.313h-.085a21.5 21.5 0 0 0-2.844 2.362 20.612 20.612 0 0 0-2.546 2.761l.398-.171-.185.214.598-.128c.734-.18 1.449-.433 2.133-.755h.611a.407.407 0 0 0 .313-.242 1.09 1.09 0 0 0 .739-.27l.384-.185s0 .142-.241.299l.469-.185.071.071.185-.156h.085c-.185 0 0-.086.583-.328l.157.185a.312.312 0 0 1 .313-.299l.284.1c.233-.178.507-.296.796-.342.498 0 .925.612 1.28 1.964.356 1.352.839 2.021 1.422 1.964.374.753.522 1.598.427 2.433l.341.1Zm-15.187-16.18-.185.228-.242-.327.427.099Zm10.11 15.027c-.312.071-.782.214-1.422.413a3.362 3.362 0 0 0-.597 1.565l-3.996 6.233a17.625 17.625 0 0 0 5.973-8.211h.042ZM396.313 389.815a12.963 12.963 0 0 1 5.276 3.003c.474.42.925.867 1.351 1.337a6.184 6.184 0 0 1 1.806 4.269 7.811 7.811 0 0 1-.456 2.533 14.14 14.14 0 0 1-2.701 4.269 31.483 31.483 0 0 1-6.314 5.436 46.184 46.184 0 0 1-10.922 5.55 30.189 30.189 0 0 1-5.944 1.423 17.34 17.34 0 0 1-2.431.156c-1.13 0-2.258-.1-3.371-.298a27.683 27.683 0 0 1-7.508-2.391 9.625 9.625 0 0 1-1.422-.925 1.422 1.422 0 0 1-.526-.939c.024-.193.094-.377.203-.537a1.22 1.22 0 0 1 .423-.388 3.879 3.879 0 0 1 1.294-.683.649.649 0 0 1 .256 0c.213 0 .369.099.412.412.043.314.114.456.156.669a3.149 3.149 0 0 0 2.844 2.121c.271 0 .427-.1.47-.356.042-.256.213-.826.313-1.295a86.102 86.102 0 0 1 3.057-9.961c1.422-3.828 2.844-7.656 4.195-11.384 1.237-3.472 2.531-6.945 3.768-10.417a76.47 76.47 0 0 0 2.432-7.755c.167-.714.257-1.444.27-2.177a2.234 2.234 0 0 0-.369-1.295 1.342 1.342 0 0 1-.157-.256v-.214c0-.057.142-.313.356-.313h.213c.192.014.383.047.569.1a11.654 11.654 0 0 1 4.266 2.547 3.26 3.26 0 0 1 1.095 2.433v.157a14.492 14.492 0 0 1-.427 3.045 70.206 70.206 0 0 1-2.687 8.538l-.783 2.063h.114c.1 0 .157 0 .256-.142.626-.526 1.237-.996 1.806-1.565s1.195-1.025 1.82-1.494a47.971 47.971 0 0 0 7.509-6.475 28.76 28.76 0 0 0 4.707-6.631 11.41 11.41 0 0 0 1.137-3.472c0-.47.1-.883.1-1.338a8.306 8.306 0 0 0-.157-1.565.893.893 0 0 0-.668-.726 23.964 23.964 0 0 0-2.545-.356h-1.081a27.53 27.53 0 0 0-7.864 1.295 31.27 31.27 0 0 0-11.376 5.963 19.484 19.484 0 0 0-4.565 5.122 9.962 9.962 0 0 0-1.422 3.729v1.665a.914.914 0 0 0 .569.768c.259.077.494.219.682.413 0 .114.1.156.1.256 0 .099 0 .156-.213.213-.19.098-.399.151-.612.157-.114 0-.27 0-.37-.1a7.179 7.179 0 0 1-4.92-5.806 5.68 5.68 0 0 1 0-.825 9.543 9.543 0 0 1 1.024-4.098 17.51 17.51 0 0 1 2.588-3.729 27.934 27.934 0 0 1 10.097-6.987 30.327 30.327 0 0 1 7.92-2.333 25.644 25.644 0 0 1 3.882-.356c1.167-.009 2.33.111 3.47.356 1.563.336 3.052.953 4.394 1.821a20.303 20.303 0 0 1 4.451 4.042 8.538 8.538 0 0 1 1.863 5.322 13.184 13.184 0 0 1-.199 1.921 16.252 16.252 0 0 1-3.47 6.83 37.937 37.937 0 0 1-7.821 7.2 19.854 19.854 0 0 1-3.1 2.078c.972.035 1.938.159 2.887.37Zm2.346 4.198c-.5-.062-1.003-.095-1.507-.1a24.76 24.76 0 0 0-3.982.413c-1.94.341-3.844.86-5.688 1.551-1.863.726-3.726 1.423-5.589 2.277a1.504 1.504 0 0 0-.824.939c-.214.569-.413 1.138-.683 1.708a92.372 92.372 0 0 0-3.512 10.302c-.256.982-.512 1.921-.726 2.846a.927.927 0 0 0 0 .356s0 .1.114.1c.137.018.276.018.412 0 .413-.157.825-.256 1.238-.413a38.113 38.113 0 0 0 8.845-4.198 35.997 35.997 0 0 0 9.215-7.926 16.135 16.135 0 0 0 3-5.279 7.47 7.47 0 0 0 .412-1.808c-.128-.768-.17-.768-.725-.768ZM418.184 391.622a54.679 54.679 0 0 1 4.806-7.513 47.75 47.75 0 0 1 3.527-3.671 2.548 2.548 0 0 1 1.806-.783 2.61 2.61 0 0 1 1.038.213 9.387 9.387 0 0 1 2.332 1.082 2.643 2.643 0 0 1 1.237 2.39 5.214 5.214 0 0 1-.099.925c-.1.303-.153.62-.157.94.021.586.146 1.165.37 1.707.152.455.357.889.612 1.295.156.256.256.356.412.356a.75.75 0 0 0 .313 0c.203-.065.413-.104.626-.114h.099c.157 0 .213 0 .213.157a.46.46 0 0 1 0 .27 1.068 1.068 0 0 1-1.08.569 6.197 6.197 0 0 1-4.266-2.077 7.094 7.094 0 0 1-1.152-1.808c-.143-.27-.199-.37-.299-.37-.099 0-.213.1-.37.313a45.218 45.218 0 0 0-4.763 6.418 85.806 85.806 0 0 0-5.689 10.886 51.513 51.513 0 0 1-3.427 6.361 2.97 2.97 0 0 1-2.019 1.423c-.834.166-1.681.251-2.531.256a8.559 8.559 0 0 1-1.038 0 1.595 1.595 0 0 1-1.489-.99 1.595 1.595 0 0 1-.118-.618 11.515 11.515 0 0 1-.142-1.807c.002-.452.036-.904.099-1.352.647-3.84 1.511-7.641 2.588-11.384a258.14 258.14 0 0 1 2.844-9.477c.339-1.071.601-2.165.782-3.273v-.512a1.402 1.402 0 0 0-.111-.59 1.409 1.409 0 0 0-.344-.492.797.797 0 0 1-.156-.37.37.37 0 0 1 .099-.213.63.63 0 0 1 .512-.199c.313 0 .683.099 1.038.199a14.346 14.346 0 0 1 3.94 2.291 2.58 2.58 0 0 1 1.08 2.22v.213a23.058 23.058 0 0 1-1.024 4.71c-.469 1.551-.938 3.06-1.351 4.611v.256c.37-.897.783-1.665 1.252-2.448ZM462.494 390.327a22.402 22.402 0 0 1-2.844 4.141c-1.92 2.291-3.939 4.412-5.958 6.589-.725.768-1.422 1.494-2.119 2.22a25.082 25.082 0 0 1-6.413 4.667 10.19 10.19 0 0 1-4.096 1.025 6.203 6.203 0 0 1-1.038 0 7.643 7.643 0 0 1-2.631-.413 5.449 5.449 0 0 1-3.114-2.96 10.971 10.971 0 0 1-.882-3.571c0-.612-.099-1.182-.099-1.808a21.182 21.182 0 0 1 3.413-11.028 24.975 24.975 0 0 1 3.526-4.667 14.841 14.841 0 0 1 5.788-3.942 7.445 7.445 0 0 1 2.332-.356 6.901 6.901 0 0 1 3.527.982 9.823 9.823 0 0 1 2.275 1.608 3.957 3.957 0 0 1 1.237 2.846c.001.385-.051.768-.156 1.138a7.445 7.445 0 0 1-1.55 3.06 17.717 17.717 0 0 1-6.826 5.023 8.087 8.087 0 0 1-3.057.626 8.314 8.314 0 0 1-2.688-.469 2.014 2.014 0 0 0-.569-.157c-.27 0-.313.157-.526.669a19.079 19.079 0 0 0-1.55 5.863 8.004 8.004 0 0 0 0 1.138 7.916 7.916 0 0 0 .981 4.041c.266.493.659.906 1.138 1.196a.89.89 0 0 0 .526.099c.136.025.276.025.412 0a10.945 10.945 0 0 0 3.314-1.807 45.429 45.429 0 0 0 3.726-3.102c4.038-3.629 7.807-7.57 11.689-11.384.725-.669 1.422-1.423 2.175-2.063.1-.1.214-.257.37-.257h.157a2.334 2.334 0 0 1-.47 1.053Zm-10.807-7.115a1.194 1.194 0 0 0-.413 0 7.954 7.954 0 0 0-2.076.925 22.847 22.847 0 0 0-8.176 9.179.653.653 0 0 0-.1.256c0 .1.099.1.355.1a7.157 7.157 0 0 0 2.02-.356 13.671 13.671 0 0 0 7.665-6.02 6.075 6.075 0 0 0 1.038-3.315v-.199c-.057-.342-.057-.498-.313-.498v-.072Z" fill="#fff"/><path d="M493.566 389.815a99.184 99.184 0 0 1-6.669 9.264c-1.664 2.077-3.214 4.198-4.978 6.218a19.472 19.472 0 0 1-2.588 2.491 5.685 5.685 0 0 1-3 1.181 7.454 7.454 0 0 1-1.138 0h-.512a2.747 2.747 0 0 1-2.019-1.509 6.615 6.615 0 0 1-.569-2.846c.03-1.233.168-2.462.412-3.671a2.418 2.418 0 0 0 0-.669v-.313a35.153 35.153 0 0 0-1.251 1.765 35.59 35.59 0 0 1-3 3.927c-.569.626-1.138 1.295-1.764 1.864a6.96 6.96 0 0 1-3.768 1.864 9.212 9.212 0 0 1-1.251.1h-.456a2.84 2.84 0 0 1-2.744-1.708 5.367 5.367 0 0 1-.626-2.063 16.991 16.991 0 0 1-.156-2.277v-1.864a28.251 28.251 0 0 1 2.631-9.847 21.786 21.786 0 0 1 4.977-7.457 20.11 20.11 0 0 1 2.318-1.921 7.285 7.285 0 0 1 4.195-1.352 8.259 8.259 0 0 1 3.37.783c.933.423 1.82.943 2.645 1.551a.94.94 0 0 0 .298.256c.157.114.214.157.313.157.1 0 .157-.1.214-.299a11.31 11.31 0 0 0 .768-3.159c0-.583.156-.84.469-.84.224.014.44.088.626.214a9.133 9.133 0 0 1 3.924 3.628c.287.523.434 1.112.427 1.708.028.222.028.447 0 .669a16.647 16.647 0 0 1-1.095 3.529c-1.024 2.476-2.218 4.867-3.157 7.357-.768 2.12-1.806 4.184-2.531 6.361a24.922 24.922 0 0 0-.882 2.689 5.646 5.646 0 0 0-.099.84v.569c0 .213 0 .256.099.256a.384.384 0 0 0 .199-.099c.292-.19.555-.42.782-.683a54.97 54.97 0 0 0 4.394-4.91c2.702-3.216 5.29-6.475 8.078-9.534a22.53 22.53 0 0 1 2.844-2.689c.099-.114.199-.271.355-.271h.157a1.722 1.722 0 0 1-.242.74Zm-30.787 17.005a2.5 2.5 0 0 0 .099.626c0 .256.157.413.256.413.1 0 .214-.114.37-.214.156-.099.611-.512.924-.825a44.727 44.727 0 0 0 4.138-4.824c1.821-2.12 3.47-4.397 5.234-6.574.159-.244.297-.501.412-.769.825-2.333 1.763-4.61 2.688-6.901.132-.22.205-.47.213-.726a6.201 6.201 0 0 0-.569-2.277.599.599 0 0 0-.526-.356h-.142a4.998 4.998 0 0 0-1.92.669 12.804 12.804 0 0 0-3.256 2.846 32.078 32.078 0 0 0-4.267 6.005 42.425 42.425 0 0 0-3.057 7.77 13.62 13.62 0 0 0-.725 4.084c.071.256.071.612.128 1.053Z" fill="#fff"/><path d="M512.892 404.259c3.1-4.341 6.37-8.652 9.684-12.893a19.56 19.56 0 0 1 1.706-1.921c.157-.099.256-.313.455-.356.199-.042 0 .1 0 .2a.808.808 0 0 1-.099.313 44.74 44.74 0 0 1-3.413 6.005 223.884 223.884 0 0 1-5.589 7.769c-1.095 1.423-2.175 2.846-3.37 4.099a6.546 6.546 0 0 1-4.821 1.864 2.586 2.586 0 0 1-1.706-.726 3.481 3.481 0 0 1-1.081-1.195 20.723 20.723 0 0 1-3-6.575c-.256-1.138-.569-2.22-.726-3.372 0-.512 0-1.025-.099-1.551-.214 0-.313.156-.427.256a129.534 129.534 0 0 0-3.882 4.61c-.825 1.039-1.65 2.078-2.531 3.117-.212.261-.371.56-.47.882-.298.925-.611 1.807-.924 2.732a1.324 1.324 0 0 1-.782.883 6.138 6.138 0 0 1-.981.37c-.854.16-1.72.245-2.588.256a9.119 9.119 0 0 1-1.237 0h-.413c-.569-.157-.782-.313-.782-.626a1.634 1.634 0 0 1 .1-.627c1.606-5.065 3.313-10.146 5.019-15.226a609.975 609.975 0 0 0 5.689-17.247 92.647 92.647 0 0 0 2.431-9.064c.249-1.246.425-2.505.526-3.771v-.413a2.843 2.843 0 0 0-.469-1.608.592.592 0 0 1-.099-.37c0-.199.142-.356.455-.356.236-.002.47.051.682.157 1.512.44 2.919 1.18 4.138 2.177a3.604 3.604 0 0 1 1.337 2.846 28.774 28.774 0 0 1-.668 5.18 115.748 115.748 0 0 1-4.394 14.956 533.339 533.339 0 0 1-3.84 10.53v.199c.157 0 .213-.156.27-.256a75.731 75.731 0 0 1 8.063-8.751 54.082 54.082 0 0 1 7.821-5.963 4.36 4.36 0 0 1 2.276-.725c.69.027 1.364.223 1.962.569.265.193.546.364.839.512a1.648 1.648 0 0 1 .882 1.423 2.692 2.692 0 0 1-.157.768 8.511 8.511 0 0 1-1.422 2.178 38.104 38.104 0 0 1-4.963 4.511c-1.507 1.195-3.057 2.177-4.607 3.216-.782.455-1.095.768-1.095 1.337.009.356.081.708.213 1.039.569 1.921 1.238 3.842 1.764 5.806s.924 3.628 1.422 5.379a.99.99 0 0 0 .213.469 19.649 19.649 0 0 0 2.688-3.016Zm-5.589-15.127a17.067 17.067 0 0 0 5.276-4.497 36.452 36.452 0 0 0-5.276 4.497Z" fill="#fff"/><path d="M544.787 389.659c-2.175 3.159-4.55 6.104-6.982 9.007-1.251 1.423-2.389 2.96-3.683 4.269a39.922 39.922 0 0 1-5.688 5.493 7.477 7.477 0 0 1-4.764 1.608 5.739 5.739 0 0 1-.981 0 3.453 3.453 0 0 1-3.1-2.746 6.075 6.075 0 0 1-.37-1.964 24.43 24.43 0 0 1 .981-7.201c1.195-3.728 2.588-7.399 3.84-11.142a55.45 55.45 0 0 0 1.607-5.436c.187-.692.429-1.367.725-2.02a.466.466 0 0 1 .455-.356h.156c.347.057.679.178.982.356a7.118 7.118 0 0 1 2.958 2.234c.513.671.802 1.488.824 2.334a5.45 5.45 0 0 1-.099.825 45.196 45.196 0 0 1-1.863 6.261c-.882 2.334-1.92 4.568-2.645 6.944-.668 1.964-1.422 3.885-2.119 5.849a12.465 12.465 0 0 0-.725 3.159v.626c.003.232.056.46.156.669.1.313.214.413.37.413a1.42 1.42 0 0 0 .412-.1 16.38 16.38 0 0 0 3.257-2.376c1.251-1.139 2.389-2.434 3.526-3.686 1.138-1.252 2.589-2.846 3.826-4.269l4.863-5.336a40.795 40.795 0 0 1 3.783-3.572c.156-.1.256-.256.512-.256v.1c-.057.156-.157.199-.214.313Zm-8.902-20.662a39.609 39.609 0 0 0-.511 1.593 6.843 6.843 0 0 1-1.095 2.177 5.41 5.41 0 0 0-.825 2.334c-.1.569-.199 1.196-.313 1.765-.114.569-.157.669-.569.669h-.242a4.778 4.778 0 0 1-1.706-.513 3.361 3.361 0 0 1-1.763-2.647c-.157-.825-.1-1.65-.2-2.49 0-.356 0-.768-.113-1.181v-.413a3.21 3.21 0 0 1 .213-1.195 73.163 73.163 0 0 1 1.55-4.269l.313-.925a.484.484 0 0 1 .469-.313h.1c.272.019.538.092.782.214a9.315 9.315 0 0 1 3.1 1.906 2.411 2.411 0 0 1 .981 1.822v.512a2.85 2.85 0 0 1-.171.954Z" fill="#fff"/><path d="M551.685 386.087a40.546 40.546 0 0 1 4.863-4.511 14.51 14.51 0 0 1 3.314-1.864c.269-.15.574-.224.882-.214h.511c1.563.287 3.046.903 4.352 1.808a2.506 2.506 0 0 1 1.095 2.077 2.43 2.43 0 0 1 0 .626 9.99 9.99 0 0 1-.725 2.434c-1.038 2.589-2.119 5.122-3.1 7.712a59.243 59.243 0 0 0-2.176 6.375c-.313 1.238-.782 2.434-1.095 3.672-.058.436-.144.869-.256 1.295v.313a.615.615 0 0 0 0 .313c.221-.113.416-.274.569-.47 1.422-1.608 2.844-3.159 4.266-4.81 2.019-2.589 4.038-5.137 6.058-7.727a48.18 48.18 0 0 1 4.024-4.496c.27-.214.469-.427.725-.626.07.021.144.021.214 0v.156a.662.662 0 0 1-.214.47c-.512.982-1.137 1.921-1.706 2.846-1.294 2.02-2.645 3.927-4.039 5.848-1.664 2.277-3.256 4.611-4.92 6.831a26.932 26.932 0 0 1-2.531 2.96 5.954 5.954 0 0 1-4.039 1.65h-.725a5.837 5.837 0 0 1-1.038-.114 2.339 2.339 0 0 1-1.763-1.337 7.487 7.487 0 0 1-.612-2.647v-.683a20.675 20.675 0 0 1 1.038-6.432c1.138-3.885 2.631-7.656 4.138-11.384.1-.256.199-.47.313-.726v-.099h-.114c-.156 0-.156.099-.256.156a18.076 18.076 0 0 0-2.019 1.864 71.86 71.86 0 0 0-5.944 7.201 85.204 85.204 0 0 0-5.29 8.182c-.512.939-.867 1.964-1.337 2.96-.313.669-.682 1.338-.938 2.063a1.035 1.035 0 0 1-.882.669 7.141 7.141 0 0 1-1.55.157h-1.294a6.701 6.701 0 0 1-.981-.214c-.626-.199-.782-.356-.782-.982v-.669c.202-1.76.584-3.496 1.137-5.179 1.294-3.985 2.588-7.983 3.939-11.911.669-2.021 1.422-3.999 2.077-6.019l.455-2.021a4.17 4.17 0 0 0 .113-.825v-.982a.507.507 0 0 1 .14-.429.491.491 0 0 1 .429-.14h.256c.492.124.968.301 1.422.526a11.354 11.354 0 0 1 2.958 2.021 2.277 2.277 0 0 1 .825 1.807c.028.175.028.352 0 .527-.1.725-.256 1.423-.413 2.22a.882.882 0 0 0-.099.412.649.649 0 0 0 0 .256c.273-.272.516-.572.725-.896Z" fill="#fff"/><path d="M583.126 403.077a26.192 26.192 0 0 1-4.152 4.44 9.192 9.192 0 0 1-5.688 2.177h-.157a2.741 2.741 0 0 1-2.332-1.294 5.283 5.283 0 0 1-.924-1.907 13.593 13.593 0 0 1-.427-3.529 12.51 12.51 0 0 1 0-1.423 24.92 24.92 0 0 1 1.081-5.792 34.743 34.743 0 0 1 5.859-10.786c.472-.639.99-1.243 1.55-1.808a8.246 8.246 0 0 1 4.081-2.12 5.826 5.826 0 0 1 1.308-.156 7.982 7.982 0 0 1 2.119.355 13.682 13.682 0 0 1 3.726 1.921l.569.413a.204.204 0 0 0 .066.068.221.221 0 0 0 .09.032s.099-.1.156-.2c.057-.218.091-.442.1-.668a1.056 1.056 0 0 0-.157-.527.84.84 0 0 1-.213-.626.516.516 0 0 1 .526-.569h.199c.245.088.475.213.683.37a10.98 10.98 0 0 1 2.745 3.102c.522.952.805 2.016.824 3.102v.669a25.308 25.308 0 0 1-.625 4.81 77.249 77.249 0 0 1-2.844 8.808c-1.423 3.785-3.015 7.457-4.665 11.128a29.937 29.937 0 0 1-4.92 7.57 10.437 10.437 0 0 1-6.101 3.473c-.874.144-1.759.21-2.645.199a11.674 11.674 0 0 1-4.55-.826 4.831 4.831 0 0 1-1.138-.725 2.227 2.227 0 0 1-.881-1.651c.001-.337.069-.671.199-.982l.156-.469c.157-.214.27-.57.569-.57.299 0 .313.413.427.612.28.71.778 1.313 1.422 1.722a10.511 10.511 0 0 0 4.607 1.594h.114a.842.842 0 0 0 .569-.256 7.956 7.956 0 0 0 1.55-1.608 20.232 20.232 0 0 0 2.374-4.141 133.62 133.62 0 0 0 6.115-15.796v-.085a33.594 33.594 0 0 1-1.365 1.949Zm-8.034 4.597c.156.213.213.313.312.313a.534.534 0 0 0 .37-.199 12.336 12.336 0 0 0 2.062-1.978c1.422-1.551 2.645-3.259 3.939-4.91 1.664-2.077 3.214-4.198 4.92-6.218.174-.248.294-.529.356-.826.256-.683.469-1.423.725-2.134.469-1.423.882-2.846 1.351-4.397.097-.21.151-.438.156-.669v-.427a6.483 6.483 0 0 0-.725-1.708.698.698 0 0 0-.668-.355h-.157a4.45 4.45 0 0 0-1.237.512 11.52 11.52 0 0 0-1.976 1.423 19.796 19.796 0 0 0-4.65 5.436 45.189 45.189 0 0 0-4.267 9.648 14.04 14.04 0 0 0-.824 4.34c-.08.731.028 1.471.313 2.149ZM632.513 370.291c.354.221.683.479.982.769a3.974 3.974 0 0 1 1.507 3.372v.413a19.359 19.359 0 0 1-.412 3.358 53.585 53.585 0 0 1-2.645 8.339c-.356.982-.768 1.978-1.138 2.96-.045.1-.079.205-.1.313 0 .157.157.157.413.157a42.91 42.91 0 0 1 3.825-.157h1.038c1.819-.07 3.633.23 5.333.882a5.536 5.536 0 0 1 1.706 1.025 1.1 1.1 0 0 1 .356.783.978.978 0 0 1-.169.492.981.981 0 0 1-.4.333.158.158 0 0 1-.142 0c-.114 0-.157-.1-.214-.214a1.628 1.628 0 0 1 0-.512c0-.412-.156-.569-.568-.569a2.24 2.24 0 0 0-.612 0 2.512 2.512 0 0 0-.682 0c-1.081.1-2.119 0-3.157.157-2.19.187-4.366.515-6.513.981a9.014 9.014 0 0 1-1.195.257 1.029 1.029 0 0 0-.479.23 1.029 1.029 0 0 0-.303.438c-.611 1.423-1.18 2.846-1.806 4.269-1.962 4.654-3.825 9.364-5.432 14.131a42.836 42.836 0 0 0-1.237 3.828 2.523 2.523 0 0 1-1.422 1.608 7.11 7.11 0 0 1-2.489.469 8.402 8.402 0 0 1-1.92-.256l-.512-.213a1.072 1.072 0 0 1-.568-.982 1.429 1.429 0 0 1 0-.413c.568-1.764 1.137-3.472 1.706-5.236a306.74 306.74 0 0 1 4.152-11.128l1.707-4.269c0-.1.099-.257.156-.37v-.1c0-.213 0-.27-.313-.313a9.943 9.943 0 0 1-4.095-1.708 6.303 6.303 0 0 1-2.218-2.547 3.528 3.528 0 0 1-.256-1.295c0-.469.256-.726.611-.726a.505.505 0 0 1 .256 0 7.719 7.719 0 0 1 3.37 2.064 1.197 1.197 0 0 1 .256.939c0 .413 0 .569.27.569a.89.89 0 0 0 .356 0 15.67 15.67 0 0 0 3.1-.882c.313 0 .37-.356.469-.612a107.924 107.924 0 0 0 1.764-4.568 93.836 93.836 0 0 0 3.1-9.164c.547-1.785.914-3.62 1.095-5.479v-.156a.807.807 0 0 0-.313-.683 3.418 3.418 0 0 1-.981-1.594c-.114-.27-.157-.37-.313-.37a.505.505 0 0 0-.256 0 20.909 20.909 0 0 0-7.565 4.269 7.66 7.66 0 0 0-1.423 1.921 21.535 21.535 0 0 0-1.806 4.91c-.06.169-.094.346-.099.526a.514.514 0 0 0 .355.455.302.302 0 0 1 .157.214v.213a.71.71 0 0 1-.612.413h-.113a.862.862 0 0 1-.356-.114 6.671 6.671 0 0 1-3.882-4.753 5.738 5.738 0 0 1-.1-1.295c.017-.71.083-1.419.2-2.12a8.961 8.961 0 0 1 3.156-5.293 25.735 25.735 0 0 1 13.197-5.949 29.885 29.885 0 0 1 4.351-.313c.939 0 1.92 0 2.844.1 3.428.213 6.84.783 10.196 1.195 2.357.325 4.732.496 7.111.513h1.237a9.875 9.875 0 0 0 2.844-.513c.412-.099.569-.156.569-.412a1.274 1.274 0 0 0 0-.37v-.2a.964.964 0 0 1 .455-.939.965.965 0 0 1 .412-.099c.297.014.576.141.782.355.452.465.836.992 1.138 1.566a10.243 10.243 0 0 1 1.294 3.571c.031.17.031.343 0 .513v.156a1.793 1.793 0 0 1-1.095 1.708 6.17 6.17 0 0 1-2.844.782h-1.251a40.588 40.588 0 0 1-4.352-.298c-3.1-.37-6.2-.94-9.314-1.352a46.994 46.994 0 0 0-7.196-.569h-1.493c-1.559.008-3.11.233-4.607.668 1.127.5 2.184 1.146 3.142 1.921Z" fill="#fff"/><path d="M656.048 391.622a53.408 53.408 0 0 1 4.807-7.513 45.097 45.097 0 0 1 3.526-3.671 2.548 2.548 0 0 1 1.806-.783c.357.001.71.073 1.038.213a9.394 9.394 0 0 1 2.333 1.082 2.675 2.675 0 0 1 1.237 2.39c-.013.311-.047.62-.1.925-.107.302-.16.62-.156.94a5.23 5.23 0 0 0 .355 1.707c.157.455.367.89.626 1.295.156.256.256.356.412.356.104.021.21.021.313 0 .198-.065.404-.104.612-.114h.113c.157 0 .2 0 .2.157.02.089.02.181 0 .27a1.106 1.106 0 0 1-.46.454 1.101 1.101 0 0 1-.635.115 6.2 6.2 0 0 1-4.267-2.077 7.505 7.505 0 0 1-1.137-1.808c-.157-.27-.199-.37-.313-.37-.114 0-.199.1-.356.313a44.155 44.155 0 0 0-4.763 6.418 87.808 87.808 0 0 0-5.689 10.886 49.772 49.772 0 0 1-3.412 6.361 3.031 3.031 0 0 1-2.02 1.423c-.833.166-1.681.251-2.531.256a8.17 8.17 0 0 1-1.038 0 1.59 1.59 0 0 1-1.607-1.608 11.63 11.63 0 0 1-.156-1.807c.009-.452.043-.903.099-1.352a110.242 110.242 0 0 1 2.588-11.384 258.14 258.14 0 0 1 2.844-9.477c.34-1.071.601-2.165.782-3.273v-.512a1.322 1.322 0 0 0-.469-1.082c0-.114-.142-.213-.142-.37a.365.365 0 0 1 .1-.213.613.613 0 0 1 .511-.199c.313 0 .683.099 1.039.199a14.355 14.355 0 0 1 3.939 2.291 2.61 2.61 0 0 1 1.08 2.22v.213a23.072 23.072 0 0 1-1.038 4.71c-.455 1.551-.924 3.06-1.336 4.611v.256c.426-.897.839-1.665 1.265-2.448ZM692.537 400.018c-.313.356-.625.669-.981 1.039l-.156.156c-.669.712-1.294 1.423-1.963 2.064a23.007 23.007 0 0 1-6.427 4.667 10.12 10.12 0 0 1-4.082 1.025 6.424 6.424 0 0 1-1.038 0 9.494 9.494 0 0 1-2.645-.413 5.69 5.69 0 0 1-3.1-2.96 11.751 11.751 0 0 1-.881-3.571c0-.612-.1-1.239-.1-1.808-.002-1.935.31-3.857.924-5.692a27.46 27.46 0 0 1 2.489-5.279 23.758 23.758 0 0 1 3.512-4.668 14.558 14.558 0 0 1 5.802-3.941 7.387 7.387 0 0 1 2.332-.356 6.842 6.842 0 0 1 3.513.982 8.77 8.77 0 0 1 2.289 1.608 4.073 4.073 0 0 1 1.238 2.846 4.418 4.418 0 0 1-.157 1.138 6.953 6.953 0 0 1-1.55 3.06 17.933 17.933 0 0 1-6.84 5.023 7.843 7.843 0 0 1-5.688.156 1.901 1.901 0 0 0-.569-.156.235.235 0 0 0-.155.034.238.238 0 0 0-.101.122c-.1.163-.186.335-.256.513a20.435 20.435 0 0 0-1.507 5.806c-.021.379-.021.759 0 1.138a8.687 8.687 0 0 0 .981 4.041c.262.496.656.91 1.138 1.196.166.053.338.087.512.099.136.025.276.025.412 0a12.088 12.088 0 0 0 3.313-1.807 52.604 52.604 0 0 0 3.726-3.102 296.954 296.954 0 0 0 8.077-7.77l2.432-2.433.469-.783a22.438 22.438 0 0 1 2.844-3.828 12.119 12.119 0 0 1 4.807-3.216 5.678 5.678 0 0 1 4.82.513 9.866 9.866 0 0 1 1.863 1.295 3.213 3.213 0 0 1 .982 2.333 7.239 7.239 0 0 1-.1.94 6.304 6.304 0 0 1-1.294 2.533 14.107 14.107 0 0 1-5.589 4.14 6.403 6.403 0 0 1-2.545.527 6.994 6.994 0 0 1-2.218-.413 2.707 2.707 0 0 0-.47-.114.247.247 0 0 0-.199.114c-.09.142-.162.295-.213.456a15.285 15.285 0 0 0-1.237 4.767 5.078 5.078 0 0 0 0 .939 6.655 6.655 0 0 0 .824 3.301c.215.413.54.757.939.996.132.054.271.088.412.1a.927.927 0 0 0 .356 0 8.947 8.947 0 0 0 2.744-1.494 35.453 35.453 0 0 0 3.058-2.547c2.275-2.064 4.508-4.184 6.627-6.418.981-.982 2.019-1.964 3-2.946.313-.27.626-.569.882-.839.256-.271.625-.569.924-.868l.1-.1h.256c-.051.313-.173.61-.356.868a21.747 21.747 0 0 1-2.375 3.43c-1.294 1.551-2.702 3.059-4.095 4.496-.256.313-.569.626-.825.883l-.114.113c-.512.57-1.024 1.181-1.592 1.751a20.77 20.77 0 0 1-5.29 3.842 8.532 8.532 0 0 1-3.356.825 7.368 7.368 0 0 1-3.058-.313 4.262 4.262 0 0 1-2.574-2.661 8.164 8.164 0 0 1-.725-2.846 14.359 14.359 0 0 1-.114-1.494 15.091 15.091 0 0 1 .47-3.785c-.825.925-1.65 1.807-2.532 2.746Zm-2.687-16.635a.468.468 0 0 0-.271-.099 1.141 1.141 0 0 0-.412 0 7.848 7.848 0 0 0-2.062.924 23.238 23.238 0 0 0-8.177 9.179.745.745 0 0 0-.113.256s0 .1.213.1h.156a5.707 5.707 0 0 0 2.02-.356 13.654 13.654 0 0 0 7.664-6.019 5.695 5.695 0 0 0 1.024-3.316v-.199a1.616 1.616 0 0 0-.042-.47Zm20.121 3.728a.268.268 0 0 0-.199-.099c-.105.028-.21.061-.312.099a6.31 6.31 0 0 0-1.707.726 18.694 18.694 0 0 0-6.726 7.571c0 .099-.1.156-.1.199 0 .042.1.114.299.114a4.958 4.958 0 0 0 1.664-.313 11.382 11.382 0 0 0 6.314-4.924 4.75 4.75 0 0 0 .824-2.746v-.157a1.104 1.104 0 0 0-.057-.47Z" fill="#fff"/><path d="M51.692 214.774a52.897 52.897 0 0 0-21.53 6.02c-2.844 1.423-3.811 3.031-3.413 6.346 3.157 26.639 6.087 53.32 9.144 79.973 1.749 15.184 3.64 30.325 5.46 45.537l1.195-.128c-.948-27.322-1.863-54.649-2.745-81.98l1.309-.128 3.157 18.328h1.251c1.408-11.868 5.802-63.025 6.172-73.968ZM65.272 168.185c-13.638-4.881-27.688-2.846-41.979-3.372 4.408-1.253 8.76-2.647 13.21-3.729 17.222-4.155 34.442-5.393 51.592.37l1.195.356c12.571 4.269 14.05 6.219 13.595 18.428-.228 6.119-.712 12.224-1.067 17.816-13.453-2.732-26.208-6.702-39.206-7.57-12.997-.868-26.222 1.423-39.56 2.248 9.228-8.125 21.685-8.538 33.275-11.782h-32.48c12.06-9.99 27.318-9.321 41.425-12.765Z" fill="#004F79"/><path d="M6.143 177.79c-2.09-7.826-4.337-15.653-6.115-23.508a4.458 4.458 0 0 1 2.56-3.941c20.52-9.065 62.1-11.996 86.048-.484a2.598 2.598 0 0 1 1.62 1.878c-4.593-.967-9.115-2.134-13.793-2.846-22.027-3.543-43.415-2.846-63.679 5.223-4.152 1.665-6.186 3.614-5.603 7.243.81 5.379.896 10.8 1.294 16.222l-2.332.213ZM63.025 200.416c-19.752-2.675-41.325.897-53.654 11.669 6.598 7.115 7.864 7.115 16.04 2.576 4.85-2.69 35.11-13.875 37.614-14.245Z" fill="#004F79"/><path d="m49.146 294.548-3.413-19.765-1.422.128c.948 29.484 1.934 58.974 2.958 88.468l-1.294.128c-1.963-16.364-4.01-32.729-5.888-49.079-3.256-28.731-6.441-57.561-9.854-86.32-.427-3.572.668-5.308 3.683-6.83 15.187-7.713 30.588-8.923 46.372-1.993 9.073 3.985 9.286 4.269 7.964 14.003a31649.019 31649.019 0 0 1-12.798 94.132c-2.617 19.618-5.229 39.232-7.836 58.841-.398 2.917-.611 6.645-4.693 5.592-1.422-.384-2.844-3.998-2.844-6.19-1.08-37.496-1.962-74.992-2.93-112.488a73.86 73.86 0 0 0-2.047-16.92c-1.507 12.76-3.02 25.529-4.536 38.307l-1.422-.014ZM72.069 169.011c-13.637-5.28-27.687-3.088-41.979-3.658 4.409-1.337 8.76-2.846 13.211-4.012 17.221-4.497 34.442-5.821 51.592.384l1.194.398c12.571 4.611 14.05 6.703 13.595 19.922-.228 6.603-.725 13.192-1.081 19.225-13.452-2.946-26.194-7.215-39.191-8.154-12.998-.939-26.237 1.423-39.575 2.419 9.228-8.78 21.686-9.249 33.29-12.721H30.672c12.06-10.787 27.332-10.075 41.396-13.803Z" fill="#73CDDB"/><path d="M11.092 198.054c-2.36-12.309-4.906-24.589-6.911-36.998a7.548 7.548 0 0 1 2.844-6.176c23.222-14.23 70.263-18.855 97.367-.768a4.033 4.033 0 0 1 1.834 2.945c-5.19-1.522-10.324-3.33-15.642-4.511-24.929-5.564-49.117-4.539-72.04 8.197-4.708 2.618-6.997 5.692-6.343 11.384.924 8.453 1.01 16.976 1.422 25.486l-2.531.441ZM13.467 214.12c20.747-19.709 71.742-19.083 91.209.099-7.11 6.461-7.536 6.347-15.173 1.58-19.908-12.466-39.973-12.309-59.882 0-7.906 4.838-9.172 4.895-16.154-1.679Z" fill="#73CDDB"/><path d="M83.317 112.802v-2.69a1.837 1.837 0 0 1 .71-1.864 2.103 2.103 0 0 0 .911-2.305 4 4 0 0 1 .54-2.732 3.676 3.676 0 0 0 .214-3.686 2.036 2.036 0 0 1 .682-2.76c.953-.712 1.934-1.424 2.844-2.064.697-.498 1.579-.84 1.565-1.92-.015-1.082.227-2.264-.953-3.117a23.862 23.862 0 0 1-2.503-2.448c-2.147-2.049-3.029-4.81-4.067-7.47a4.274 4.274 0 0 1 0-1.338c0-2.249-.114-4.497 0-6.717a23.52 23.52 0 0 0-1.28-7.03c0-.142-.37-.284-.355-.384.412-2.362-1.579-4.098-1.664-6.332 0-.128-.356-.37-.526-.37-.17 0-.512.299-.498.427-.023 1.743.1 3.485.37 5.208a7.676 7.676 0 0 1-.2 5.194 1.805 1.805 0 0 0-.184.455 37.143 37.143 0 0 1-4.266 13.291 60.302 60.302 0 0 1-6.855 10.018c-2.744 3.287-5.688 6.404-8.532 9.605a17.59 17.59 0 0 0-2.318 3.615 34.82 34.82 0 0 0-3.27 7.798 1.151 1.151 0 0 1-.726.726c-.184 0-.54-.313-.74-.584a68.62 68.62 0 0 0-4.834-6.83 19.597 19.597 0 0 0-3.527-2.946c-1.82-1.195-3.327-2.846-5.531-3.543a17.067 17.067 0 0 1-3.57-2.39 42.464 42.464 0 0 1-7.565-5.85c-.626-.611-1.621-1.038-2.162-1.778-2.332-3.188-5.318-5.863-7.266-9.378a74.926 74.926 0 0 1-4.736-11.754c0-.156-.213-.327-.184-.455.384-1.964-.526-3.771-.526-5.692a31.01 31.01 0 0 1 0-5.692c.853-4.525 1.763-9.008 4.479-12.935a42.804 42.804 0 0 1 4.024-5.593 44.276 44.276 0 0 1 6.499-5.137c4.096-2.974 8.532-5.236 12.798-7.983A70.333 70.333 0 0 0 53.17 14.13a22.319 22.319 0 0 0 3.142-5.421 29.6 29.6 0 0 0 1.081-3.031A46.353 46.353 0 0 0 58.46.74c.065-.242.146-.48.241-.712.315.07.62.175.91.314 1.423.84 1.607 2.461 1.977 3.742a37.35 37.35 0 0 1 1.124 4.64c.227 1.608.227 3.242 0 4.851a33.42 33.42 0 0 1-1.693 7.329c-.682 1.779-1.877 3.344-2.161 5.294-.17 1.195-1.82 1.707-1.508 3.144-1.422 1.423-.839 3.771-2.09 5.322.114 2.249-.54 4.554.683 6.689.611 1.081.91 2.29 1.607 3.386a3.94 3.94 0 0 0 2.502 1.822c.971.214 1.981.17 2.93-.128 2.744-.64 4.11-2.647 5.688-4.582 2.133-2.562 3.128-5.806 5.347-8.297.881-1.024 1.507-2.262 2.36-3.33 1.536-1.92 3.826-2.732 5.959-3.756.241-.128.753.213 1.066.427.54.327 0 .498-.156.754a25.37 25.37 0 0 0-1.75 6.56c-.01 2.222.543 4.41 1.608 6.36.568 1.21 1.265 2.377 1.82 3.558a31.457 31.457 0 0 0 3.114 4.64 37.626 37.626 0 0 0 2.844 4.41c3.057 3.188 5.19 7.002 7.736 10.545a12.81 12.81 0 0 1 2.162 3.657c.369 1.324 1.422 2.234 1.82 3.586.398 1.352 1.095 2.946 1.749 4.369a15.492 15.492 0 0 1 1.422 5.692c.1 1.1.271 2.194.512 3.273.156 1.024-.384 2.163.37 3.074-1.024 2.077-.086 4.354-.683 6.56-.498 1.85-.782 3.77-1.294 5.692a11.622 11.622 0 0 1-.569 2.177c-1.678 3.187-2.844 6.617-5.247 9.42a10.57 10.57 0 0 0-1.792 2.149 6.546 6.546 0 0 1-2.247 2.291c-2.63 1.736-4.522 4.511-7.65 5.55-2.845 2.846-6.613 4.07-9.741 6.403a56.658 56.658 0 0 1-6.4 3.33c-2.474 1.423-4.834 3.017-7.266 4.54-.427.27-1.038.868-1.237.739a3.363 3.363 0 0 1-1.422-1.423 8.11 8.11 0 0 1-.54-2.732 24.096 24.096 0 0 0-.925-3.913 11.277 11.277 0 0 1 1.806-9.065A4.795 4.795 0 0 1 65.91 117c2.263.231 4.495.708 6.655 1.423a8.355 8.355 0 0 0 4.039.711 27.16 27.16 0 0 1 3.228 0 3.158 3.158 0 0 0 3.299-3.002v-.171c.228-1.181.185-2.163.185-3.159Z" fill="url(#a)"/><path d="M46.785 121.354c0 .228 0 1.124-.398 1.281-.939.441-.668-.726-1.038-1.11-.782-.783-1.422-1.736-2.119-2.59a18.32 18.32 0 0 0-6.015-4.269c-2.19-1.138-4.721-2.049-6.926-3.344a25.296 25.296 0 0 1-6.015-4.269 96.533 96.533 0 0 0-4.166-4.184 15.479 15.479 0 0 1-3.954-6.432c-.54-1.58-1.848-2.846-1.791-4.653 0-.185-.484-.413-.455-.584a8.33 8.33 0 0 0-.54-3.3c0-.186.156-.456.255-.67.27.128.626.214.782.441a38.282 38.282 0 0 0 6.854 7.343 100.107 100.107 0 0 0 8.533 6.148c2.005 1.423 4.166 2.504 6.2 3.813a28.863 28.863 0 0 1 8.93 9.278 27.557 27.557 0 0 1 1.692 4.952c.123.71.18 1.429.171 2.149Z" fill="url(#b)"/><defs><linearGradient id="a" x1="59.498" y1="136.139" x2="59.498" y2="-.014" gradientUnits="userSpaceOnUse"><stop stop-color="#F26428"/><stop offset="1" stop-color="#F1EB4D"/></linearGradient><linearGradient id="b" x1="30.062" y1="122.734" x2="30.062" y2="87.159" gradientUnits="userSpaceOnUse"><stop stop-color="#F26428"/><stop offset="1" stop-color="#F1EB4D"/></linearGradient></defs></svg>